<svg width="23" height="23" viewBox="0 0 23 23" fill="none" xmlns="http://www.w3.org/2000/svg">
<path d="M19.61 3.36826C17.4404 1.19622 14.5556 0 11.4873 0C8.4188 0 5.53419 1.19622 3.36454 3.36826C1.1949 5.5403 0 8.42811 0 11.5C0 14.5717 1.1949 17.4597 3.36454 19.6317C5.53419 21.8038 8.4188 23 11.4873 23C14.5556 23 17.4404 21.8038 19.61 19.6317C21.7797 17.4597 22.9746 14.5717 22.9746 11.5C22.9746 8.42811 21.7797 5.5403 19.61 3.36826ZM5.7589 19.8728C6.23935 17.1035 8.63651 15.0608 11.4873 15.0608C14.3383 15.0608 16.7352 17.1035 17.2157 19.8728C15.5847 20.9947 13.6114 21.6523 11.4873 21.6523C9.36322 21.6523 7.3899 20.9947 5.7589 19.8728ZM7.83476 10.0565C7.83476 8.04014 9.4733 6.39996 11.4873 6.39996C13.5013 6.39996 15.1398 8.04031 15.1398 10.0565C15.1398 12.0728 13.5013 13.7131 11.4873 13.7131C9.4733 13.7131 7.83476 12.0728 7.83476 10.0565ZM18.3817 18.9381C18.0194 17.6489 17.2998 16.4791 16.2913 15.5654C15.6725 15.0048 14.9682 14.5624 14.211 14.2506C15.5796 13.3569 16.4862 11.8108 16.4862 10.0565C16.4862 7.29717 14.2436 5.05231 11.4873 5.05231C8.73098 5.05231 6.4886 7.29717 6.4886 10.0565C6.4886 11.8108 7.39516 13.3569 8.76359 14.2506C8.00654 14.5624 7.30208 15.0046 6.68334 15.5653C5.67494 16.479 4.95523 17.6487 4.59292 18.9379C2.59733 17.0826 1.34617 14.435 1.34617 11.5C1.34617 5.90196 5.89544 1.34766 11.4873 1.34766C17.0791 1.34766 21.6284 5.90196 21.6284 11.5C21.6284 14.4352 20.3773 17.0828 18.3817 18.9381Z" fill="#868889"/>
</svg>
