<svg width="29" height="28" viewBox="0 0 29 28" fill="none" xmlns="http://www.w3.org/2000/svg">
<g clip-path="url(#clip0_1103_5251)">
<g clip-path="url(#clip1_1103_5251)">
<path fill-rule="evenodd" clip-rule="evenodd" d="M-15 0H44V28H-15V0Z" fill="white" fill-opacity="0.01"/>
<path d="M14.3605 17.15C19.0154 17.15 22.789 13.3892 22.789 8.75C22.789 4.11081 19.0154 0.35 14.3605 0.35C9.70548 0.35 5.93188 4.11081 5.93188 8.75C5.93188 13.3892 9.70548 17.15 14.3605 17.15Z" fill="#00AED6"/>
<path fill-rule="evenodd" clip-rule="evenodd" d="M19.2771 8.50484C19.2068 7.45484 18.2938 6.61484 17.2402 6.68484H11.9021C11.6914 6.68484 11.5509 6.54484 11.5509 6.33516C11.5509 6.12516 11.6914 5.98516 11.9021 5.98516H17.3104C17.2751 5.28516 16.7485 4.55 16.0811 4.44516C14.5009 4.16516 12.8854 4.16516 11.3402 4.44516C10.4621 4.58516 9.79494 5.46 9.65447 6.3C9.40863 7.94761 9.40863 9.62239 9.65447 11.27C9.83022 12.2152 10.6025 12.9848 11.5862 13.1248C13.5528 13.37 15.5195 13.37 17.4509 13.1248C18.329 13.02 18.8909 12.2152 19.0664 11.3752C19.2421 10.3952 19.312 9.45 19.2771 8.50484ZM17.5211 9.66V9.97484C17.5211 10.1848 17.3807 10.3248 17.1699 10.3248C16.9592 10.3248 16.8188 10.1848 16.8188 9.97515V9.66C16.7136 9.55484 16.643 9.41484 16.643 9.27484C16.643 8.99484 16.889 8.75 17.1699 8.75C17.4509 8.75 17.6969 8.99515 17.6969 9.27516C17.6969 9.41515 17.6263 9.55515 17.5211 9.66Z" fill="white"/>
<path d="M1.64742 25.55C1.99861 26.0752 2.59548 26.3552 3.22762 26.32C3.96528 26.32 4.49191 25.8648 4.49191 25.2348V24.8852C4.10576 25.27 3.54385 25.48 2.98195 25.4452C1.61215 25.48 0.488338 24.43 0.453375 23.0652C0.4181 21.7 1.47167 20.58 2.84147 20.5452H2.94667C3.50858 20.51 4.07048 20.72 4.49191 21.1052V20.65H5.7562V25.2C5.7562 26.53 4.70262 27.44 3.22762 27.44C2.24429 27.51 1.3312 27.09 0.699053 26.32L1.64742 25.55ZM4.45695 22.7152C4.45695 22.19 3.85977 21.7 3.19266 21.7C2.3498 21.7 1.7879 22.2252 1.7879 22.9948C1.75262 23.66 2.24429 24.2548 2.94667 24.3248H3.15739C3.89504 24.3248 4.49191 23.87 4.49191 23.31V22.7152H4.45695ZM9.05739 20.51C10.6026 20.51 11.6915 21.5948 11.6915 22.9948C11.6915 24.3948 10.5677 25.48 9.05739 25.48C7.6879 25.55 6.49385 24.5 6.42361 23.1348C6.35337 21.77 7.37167 20.58 8.74147 20.51H9.05739ZM9.05739 21.6648C8.88209 21.6648 8.70849 21.6991 8.54652 21.7659C8.38455 21.8328 8.23738 21.9308 8.11344 22.0543C7.9895 22.1779 7.89121 22.3246 7.82419 22.486C7.75717 22.6474 7.72274 22.8204 7.72286 22.9952C7.72278 23.1698 7.75724 23.3428 7.82428 23.5042C7.89132 23.6656 7.98961 23.8123 8.11355 23.9358C8.23749 24.0593 8.38464 24.1573 8.54659 24.2241C8.70854 24.2909 8.88211 24.3252 9.05739 24.3252C9.23269 24.3252 9.40629 24.2909 9.56826 24.2241C9.73023 24.1572 9.87739 24.0592 10.0013 23.9357C10.1253 23.8121 10.2236 23.6654 10.2906 23.504C10.3576 23.3426 10.392 23.1696 10.3919 22.9948C10.4272 22.2948 9.86528 21.7 9.19786 21.6648H9.05739ZM12.4288 20.65H13.6931V21.07H13.7284C14.1498 20.6848 14.6764 20.51 15.2383 20.51C16.6081 20.5452 17.6967 21.6648 17.6617 23.03C17.6485 23.6664 17.3889 24.273 16.9373 24.7231C16.4856 25.1731 15.8769 25.4317 15.2383 25.4448C14.7067 25.4432 14.1896 25.2715 13.7633 24.9548H13.7284V27.3H12.4288V20.65ZM14.9927 21.6648C14.2903 21.6648 13.7284 22.1552 13.7284 22.68V23.2748C13.7284 23.8348 14.2903 24.29 15.0276 24.29C15.7653 24.29 16.3621 23.6952 16.3272 22.96C16.3272 22.26 15.73 21.6652 14.9927 21.6652V21.6648ZM20.12 22.54C20.9629 22.4348 21.2439 22.2948 21.2439 22.05C21.2439 21.7348 20.9276 21.56 20.401 21.56C19.8741 21.5252 19.3474 21.8752 19.2419 22.4L18.0129 22.1548C18.1883 21.21 19.1717 20.51 20.401 20.51C21.7705 20.51 22.6133 21.21 22.6133 22.33V25.3052H21.3843V24.78C20.9979 25.2352 20.401 25.48 19.8038 25.41C18.7855 25.41 18.0479 24.85 18.0479 24.01C18.0479 23.17 18.6098 22.75 20.12 22.54ZM21.3141 23.03C21.1736 23.2052 20.9276 23.31 20.2955 23.4152C19.5229 23.5552 19.2419 23.6952 19.2419 23.9752C19.2419 24.2552 19.4879 24.3952 19.9796 24.3952C20.7169 24.3952 21.3141 24.0448 21.3141 23.59V23.03ZM24.9312 25.06L22.7891 20.65H24.2288L25.6689 23.6952H25.7038L27.1086 20.65H28.5486L25.3177 27.3H23.8427L24.9312 25.06Z" fill="black"/>
</g>
</g>
<defs>
<clipPath id="clip0_1103_5251">
<rect width="29" height="28" fill="white"/>
</clipPath>
<clipPath id="clip1_1103_5251">
<rect width="59" height="28" fill="white" transform="translate(-15)"/>
</clipPath>
</defs>
</svg>
