<svg width="22" height="22" viewBox="0 0 22 22" fill="none" xmlns="http://www.w3.org/2000/svg">
<path d="M11.0001 4.98924e-06C10.879 -0.000108171 10.758 0.00170249 10.6371 0.00555017C10.5162 0.00939787 10.3953 0.0152826 10.2745 0.0230911C10.1538 0.0308997 10.0332 0.0407453 9.91275 0.0526278C9.79234 0.0643972 9.67216 0.0782037 9.5522 0.0940471C9.43224 0.109777 9.31251 0.127545 9.19312 0.147349C9.07373 0.167153 8.95479 0.188768 8.83607 0.212533C8.71736 0.236185 8.59921 0.261874 8.48129 0.289374C8.36349 0.316987 8.24625 0.346524 8.12934 0.377984C8.01255 0.409445 7.89622 0.442829 7.78045 0.478137C7.66479 0.513446 7.54959 0.550678 7.43506 0.589834C7.32054 0.628877 7.2068 0.669956 7.09364 0.712734C6.98047 0.755624 6.86798 0.800438 6.7564 0.84695C6.6447 0.893575 6.5338 0.942011 6.42368 0.992257C6.31369 1.0425 6.20448 1.09456 6.09606 1.14843C5.98776 1.2023 5.88025 1.25797 5.77376 1.31535C5.66727 1.37273 5.56169 1.43191 5.45712 1.4928C5.35255 1.55368 5.24901 1.61638 5.14659 1.68065C5.04406 1.74493 4.94266 1.81102 4.84228 1.87858C4.74202 1.94626 4.64288 2.01563 4.54488 2.08659C4.44676 2.15754 4.35 2.23008 4.25438 2.30421C4.15875 2.37833 4.06437 2.45404 3.97123 2.53133C3.8781 2.60863 3.78632 2.68739 3.69578 2.76774C3.60525 2.84798 3.51607 2.9298 3.42825 3.01298C3.34044 3.09627 3.25398 3.18092 3.16899 3.26704C3.084 3.35316 3.00037 3.44064 2.91821 3.52947C2.83616 3.61831 2.75547 3.70862 2.67637 3.80005C2.59715 3.89161 2.51952 3.9844 2.44347 4.07856C2.36742 4.1726 2.29285 4.26789 2.21997 4.36453C2.14697 4.46107 2.07568 4.55884 2.00597 4.65775C1.93626 4.75666 1.86824 4.8567 1.80181 4.95787C1.73538 5.05893 1.67076 5.16123 1.60773 5.26455C1.5447 5.36776 1.48336 5.4721 1.42383 5.57746C1.36419 5.68282 1.30637 5.78909 1.25035 5.89626C1.19433 6.00354 1.14001 6.11161 1.0875 6.22071C1.03499 6.32969 0.984404 6.43957 0.935515 6.55025C0.886627 6.66104 0.839663 6.77251 0.794396 6.88477C0.749242 6.99703 0.706012 7.10998 0.664479 7.2236C0.62306 7.33733 0.583565 7.45163 0.54588 7.56672C0.508195 7.6817 0.472434 7.79724 0.438597 7.91347C0.40476 8.02958 0.372847 8.14636 0.342858 8.26349C0.312868 8.38073 0.284803 8.49843 0.258661 8.61657C0.232632 8.73483 0.208528 8.85332 0.186347 8.97226C0.164166 9.0912 0.143909 9.21059 0.125689 9.33021C0.107469 9.44983 0.0911732 9.56967 0.0769141 9.68985C0.062655 9.81004 0.0503197 9.93034 0.0400215 10.051C0.0297232 10.1715 0.0213489 10.2922 0.0151246 10.413C0.00878727 10.5339 0.0044869 10.6548 0.00211039 10.7758C-0.000152992 10.8968 -0.000492472 11.0178 0.00120505 11.1387C0.00290254 11.2597 0.0065239 11.3807 0.0121823 11.5016C0.0179538 11.6224 0.025536 11.7432 0.0352684 11.8638C0.0448877 11.9844 0.0565439 12.1048 0.0702372 12.225C0.0838173 12.3453 0.0994344 12.4653 0.117089 12.585C0.134743 12.7047 0.154321 12.8241 0.175822 12.9432C0.197437 13.0622 0.220863 13.181 0.246439 13.2992C0.271902 13.4175 0.299288 13.5354 0.328598 13.6528C0.358022 13.7701 0.389369 13.887 0.422527 14.0033C0.455799 14.1197 0.490881 14.2355 0.528 14.3507C0.565005 14.4659 0.604048 14.5804 0.644901 14.6943C0.685642 14.8082 0.728419 14.9215 0.773007 15.034C0.817595 15.1464 0.863994 15.2581 0.912316 15.3692C0.960526 15.4801 1.01066 15.5902 1.0626 15.6995C1.11443 15.8088 1.16819 15.9172 1.22364 16.0247C1.27921 16.1323 1.33647 16.2389 1.39543 16.3446C1.4545 16.4501 1.51516 16.5548 1.57774 16.6584L0.0267809 21.3102C0.0202172 21.3299 0.0148983 21.3498 0.0107111 21.3701C0.00652392 21.3904 0.00358157 21.4107 0.00188405 21.4313C7.33721e-05 21.4519 -0.000379312 21.4726 0.000299707 21.4932C0.000978697 21.5139 0.00290255 21.5344 0.00595808 21.5549C0.00912677 21.5754 0.0134271 21.5955 0.0189723 21.6154C0.0245175 21.6354 0.0311944 21.6549 0.039003 21.6741C0.0468115 21.6932 0.0557518 21.7119 0.0658237 21.7299C0.0757824 21.748 0.0868728 21.7654 0.0989817 21.7821C0.111091 21.799 0.124105 21.815 0.138138 21.8301C0.152057 21.8454 0.166882 21.8598 0.182612 21.8732C0.198343 21.8867 0.214752 21.8992 0.23184 21.9107C0.249042 21.9222 0.266809 21.9328 0.285255 21.9422C0.303702 21.9515 0.322601 21.9599 0.341952 21.9671C0.361304 21.9743 0.381108 21.9803 0.401139 21.9852C0.421283 21.99 0.44154 21.9936 0.462136 21.9961C0.482619 21.9985 0.503216 21.9998 0.523925 21.9998C0.580622 21.9999 0.635961 21.9908 0.689716 21.9727L5.34146 20.4222C5.52231 20.5308 5.7062 20.6342 5.89304 20.7323C6.07977 20.8303 6.26932 20.923 6.46137 21.0101C6.65353 21.0972 6.84806 21.1788 7.04486 21.2548C7.24166 21.3307 7.44061 21.401 7.64148 21.4655C7.84235 21.53 8.04492 21.5886 8.24907 21.6416C8.45334 21.6944 8.65897 21.7413 8.86595 21.7824C9.07293 21.8233 9.28082 21.8584 9.48984 21.8875C9.69875 21.9165 9.90845 21.9396 10.1187 21.9565C10.329 21.9735 10.5397 21.9844 10.7505 21.9892C10.9615 21.9941 11.1724 21.9929 11.3832 21.9856C11.5941 21.9784 11.8046 21.965 12.0146 21.9457C12.2248 21.9262 12.4341 21.9008 12.6427 21.8694C12.8514 21.8379 13.0589 21.8005 13.2653 21.7571C13.4719 21.7137 13.6769 21.6644 13.8805 21.6092C14.0842 21.554 14.286 21.493 14.4862 21.4262C14.6863 21.3593 14.8843 21.2869 15.0803 21.2087C15.2762 21.1304 15.4697 21.0467 15.6609 20.9573C15.852 20.868 16.0404 20.7731 16.226 20.673C16.4117 20.5728 16.5944 20.4674 16.774 20.3566C16.9536 20.2459 17.1299 20.1301 17.3028 20.0093C17.4757 19.8884 17.645 19.7627 17.8107 19.6321C17.9764 19.5015 18.1382 19.3662 18.2962 19.2262C18.4541 19.0864 18.6079 18.942 18.7575 18.7933C18.9071 18.6445 19.0523 18.4916 19.193 18.3344C19.3338 18.1773 19.47 18.0163 19.6015 17.8513C19.7331 17.6864 19.8597 17.5178 19.9816 17.3454C20.1034 17.1732 20.2202 16.9976 20.3318 16.8186C20.4435 16.6396 20.55 16.4576 20.6513 16.2725C20.7525 16.0874 20.8483 15.8995 20.9388 15.7089C21.0292 15.5183 21.1141 15.3253 21.1934 15.1297C21.2727 14.9341 21.3463 14.7366 21.4143 14.5368C21.4822 14.3371 21.5443 14.1355 21.6007 13.9323C21.657 13.7289 21.7074 13.5242 21.752 13.3179C21.7966 13.1117 21.8352 12.9044 21.8678 12.6959C21.9003 12.4875 21.9269 12.2782 21.9475 12.0683C21.9681 11.8583 21.9826 11.6479 21.9911 11.437C21.9995 11.2263 22.002 11.0154 21.9982 10.8044C21.9946 10.5935 21.9848 10.3829 21.969 10.1724C21.9532 9.96202 21.9314 9.75232 21.9035 9.54319C21.8757 9.33406 21.8417 9.12583 21.8019 8.91873C21.7621 8.71152 21.7162 8.50567 21.6645 8.30106C21.6128 8.09657 21.5553 7.89366 21.4919 7.69245C21.4286 7.49124 21.3594 7.29195 21.2845 7.0947C21.2097 6.89745 21.1292 6.70246 21.0431 6.50985C20.9571 6.31724 20.8655 6.12723 20.7684 5.93994C20.6715 5.75253 20.5692 5.56818 20.4615 5.38666C20.3539 5.20525 20.2412 5.02702 20.1233 4.85206C20.0054 4.6771 19.8826 4.50565 19.7548 4.33771C19.627 4.16977 19.4946 4.00568 19.3574 3.84543C19.2202 3.68519 19.0785 3.52891 18.9323 3.37681C18.7861 3.22471 18.6357 3.07691 18.481 2.93342C18.3263 2.79004 18.1675 2.65107 18.0049 2.51674C17.8422 2.38241 17.6758 2.25294 17.5056 2.12812C17.3355 2.00341 17.1619 1.88368 16.9848 1.76893C16.8078 1.65417 16.6275 1.54451 16.4442 1.44017C16.2609 1.33583 16.0747 1.23681 15.8856 1.14311C15.6966 1.04941 15.505 0.961249 15.3108 0.878637C15.1168 0.796025 14.9204 0.718958 14.7219 0.647662C14.5233 0.576367 14.3229 0.51073 14.1205 0.450977C13.9182 0.391112 13.7144 0.337244 13.5089 0.289148C13.3035 0.241052 13.0968 0.198953 12.8889 0.162853C12.6811 0.126639 12.4724 0.0965368 12.2628 0.072319C12.0532 0.0482143 11.843 0.0301075 11.6324 0.0179986C11.4218 0.00588969 11.211 4.98924e-06 11.0001 4.98924e-06ZM11.0001 20.9522C10.7663 20.9521 10.5329 20.9436 10.2998 20.9269C10.0667 20.9103 9.83444 20.8854 9.60312 20.8522C9.3717 20.8192 9.14185 20.778 8.91337 20.7287C8.68488 20.6793 8.45855 20.6219 8.23414 20.5566C8.00973 20.4912 7.78792 20.4181 7.56871 20.3371C7.34951 20.2561 7.13347 20.1673 6.92049 20.071C6.70751 19.9747 6.49826 19.8711 6.29264 19.7599C6.08701 19.6488 5.88557 19.5307 5.68832 19.4053C5.60265 19.3511 5.50929 19.324 5.40801 19.324C5.35131 19.3239 5.29597 19.333 5.24222 19.3511L1.35152 20.6479L2.64876 16.7576C2.66098 16.7207 2.66901 16.683 2.67286 16.6443C2.67671 16.6057 2.67626 16.5672 2.6715 16.5286C2.66686 16.49 2.65804 16.4524 2.64502 16.4158C2.63201 16.3792 2.61526 16.3444 2.59455 16.3116C2.49734 16.1575 2.40443 16.0008 2.31593 15.8415C2.22732 15.6823 2.14313 15.5207 2.06346 15.3568C1.98379 15.193 1.90864 15.0271 1.83803 14.859C1.76741 14.6911 1.70155 14.5212 1.64032 14.3496C1.57899 14.178 1.52252 14.0048 1.4708 13.8301C1.41908 13.6554 1.37223 13.4793 1.33013 13.3019C1.28815 13.1247 1.25091 12.9464 1.21866 12.767C1.18641 12.5876 1.15913 12.4076 1.13684 12.2267C1.11443 12.0459 1.09712 11.8645 1.08467 11.6827C1.07233 11.5009 1.06487 11.3189 1.06249 11.1367C1.06011 10.9545 1.06283 10.7723 1.07041 10.5902C1.07811 10.4082 1.09067 10.2265 1.10832 10.0451C1.12598 9.86379 1.1485 9.68295 1.17611 9.5029C1.20361 9.32274 1.23609 9.14348 1.27355 8.96513C1.31101 8.78678 1.35322 8.60956 1.40041 8.43358C1.44748 8.25761 1.49943 8.08299 1.55624 7.90984C1.61294 7.7367 1.67439 7.56514 1.74059 7.39538C1.80679 7.22563 1.87752 7.05781 1.953 6.8919C2.02837 6.726 2.10827 6.56225 2.19269 6.40076C2.27712 6.23927 2.36584 6.08015 2.45898 5.92353C2.55211 5.7669 2.64955 5.613 2.75106 5.46169C2.85269 5.31039 2.95838 5.16202 3.06816 5.0166C3.17793 4.87118 3.29155 4.72882 3.40913 4.58962C3.52671 4.45043 3.64803 4.31451 3.77308 4.18199C3.89813 4.04936 4.0268 3.92035 4.15886 3.79496C4.29104 3.66946 4.4265 3.54769 4.56536 3.42966C4.70422 3.31162 4.84624 3.19755 4.99132 3.08733C5.1364 2.9771 5.28443 2.87095 5.43539 2.76876C5.58636 2.66668 5.73993 2.56891 5.89632 2.4752C6.05261 2.38161 6.21138 2.29232 6.37265 2.20734C6.53391 2.12246 6.69732 2.042 6.863 1.96606C7.02868 1.89024 7.19628 1.81883 7.3658 1.75218C7.53544 1.68541 7.70666 1.62339 7.8797 1.56613C8.05262 1.50887 8.22712 1.45636 8.40298 1.4086C8.57884 1.36084 8.75584 1.31807 8.93408 1.28004C9.11232 1.24202 9.29146 1.20897 9.47151 1.18091C9.65156 1.15273 9.83217 1.12953 10.0135 1.11142C10.1949 1.0932 10.3765 1.07996 10.5586 1.0717C10.7406 1.06355 10.9228 1.06027 11.105 1.06208C11.2872 1.06389 11.4691 1.07068 11.651 1.08245C11.8329 1.09433 12.0143 1.11108 12.1952 1.13281C12.3761 1.15465 12.5563 1.18136 12.7357 1.21305C12.9152 1.24473 13.0937 1.28129 13.2711 1.32282C13.4486 1.36424 13.6248 1.41064 13.7996 1.46179C13.9744 1.51294 14.1478 1.56885 14.3197 1.62962C14.4915 1.69027 14.6615 1.75568 14.8298 1.82562C14.9979 1.89567 15.1642 1.97036 15.3283 2.04947C15.4924 2.12868 15.6542 2.21232 15.8138 2.30036C15.9733 2.38852 16.1303 2.48086 16.2848 2.57762C16.4392 2.67427 16.5909 2.7751 16.7398 2.88023C16.8886 2.98525 17.0346 3.09423 17.1775 3.20728C17.3203 3.32045 17.4601 3.43735 17.5966 3.55799C17.7331 3.67874 17.8662 3.80322 17.9957 3.93122C18.1254 4.05932 18.2515 4.19082 18.3738 4.32583C18.4963 4.46073 18.6149 4.59902 18.7297 4.74048C18.8446 4.88205 18.9554 5.02656 19.0622 5.17413C19.1692 5.32182 19.2719 5.47222 19.3705 5.62545C19.4691 5.77867 19.5634 5.93451 19.6534 6.09294C19.7435 6.25137 19.829 6.41219 19.9103 6.57526C19.9916 6.73845 20.0682 6.90367 20.1403 7.07105C20.2123 7.23842 20.2799 7.40761 20.3427 7.5786C20.4055 7.74971 20.4636 7.92241 20.5169 8.09657C20.5702 8.27085 20.6187 8.44648 20.6624 8.62336C20.7061 8.80025 20.7448 8.97826 20.7787 9.15729C20.8126 9.33632 20.8416 9.51614 20.8655 9.69687C20.8895 9.87749 20.9085 10.0587 20.9227 10.2403C20.9367 10.422 20.9458 10.6039 20.9497 10.7861C20.9538 10.9683 20.9529 11.1505 20.9469 11.3326C20.9409 11.5147 20.9299 11.6965 20.914 11.8781C20.898 12.0596 20.8771 12.2405 20.8512 12.4209C20.8253 12.6013 20.7945 12.7808 20.7587 12.9595C20.7228 13.1382 20.6822 13.3157 20.6367 13.4922C20.5911 13.6686 20.5409 13.8437 20.4856 14.0174C20.4305 14.1911 20.3706 14.3631 20.3059 14.5334C20.2413 14.7039 20.1722 14.8724 20.0983 15.0389C20.0244 15.2055 19.9459 15.37 19.863 15.5322C19.7802 15.6944 19.6928 15.8543 19.6011 16.0118C19.5095 16.1693 19.4135 16.3241 19.3132 16.4763C19.2131 16.6285 19.1087 16.7779 19.0003 16.9243C18.8919 17.0707 18.7795 17.2141 18.6632 17.3545C18.5469 17.4947 18.4268 17.6317 18.303 17.7654C18.1792 17.899 18.0518 18.0293 17.9207 18.1559C17.7898 18.2825 17.6553 18.4056 17.5176 18.5248C17.3799 18.6441 17.239 18.7595 17.0948 18.8711C16.9507 18.9827 16.8037 19.0902 16.6537 19.1937C16.5037 19.2971 16.351 19.3963 16.1955 19.4914C16.04 19.5866 15.8821 19.6772 15.7216 19.7637C15.5612 19.85 15.3984 19.932 15.2335 20.0094C15.0685 20.0868 14.9016 20.1597 14.7327 20.2279C14.5637 20.2962 14.393 20.3597 14.2206 20.4187C14.0481 20.4775 13.8742 20.5316 13.6988 20.581C13.5234 20.6303 13.3467 20.6748 13.1688 20.7144C12.9909 20.754 12.8121 20.7886 12.6323 20.8185C12.4526 20.8483 12.2721 20.8731 12.091 20.8929C11.9098 20.9128 11.7283 20.9276 11.5463 20.9376C11.3643 20.9474 11.1823 20.9523 11.0001 20.9522ZM6.80958 10.9999C6.80958 11.0342 6.80789 11.0685 6.80449 11.1026C6.80121 11.1367 6.79612 11.1707 6.78944 11.2043C6.78276 11.238 6.77439 11.2711 6.76443 11.304C6.75447 11.3369 6.74293 11.3691 6.7298 11.4008C6.71667 11.4325 6.70208 11.4635 6.68589 11.4937C6.66971 11.524 6.65206 11.5534 6.63304 11.5819C6.61392 11.6104 6.59355 11.6379 6.57182 11.6645C6.54998 11.691 6.52701 11.7165 6.50279 11.7407C6.47846 11.7649 6.45311 11.788 6.42663 11.8097C6.40003 11.8314 6.37253 11.8519 6.34401 11.8709C6.3155 11.8901 6.28607 11.9076 6.25586 11.9238C6.22553 11.94 6.19463 11.9547 6.16283 11.9678C6.13115 11.9809 6.09889 11.9925 6.06607 12.0024C6.03326 12.0124 5.99998 12.0207 5.96637 12.0273C5.93265 12.0341 5.89881 12.0391 5.86464 12.0425C5.83046 12.0458 5.79628 12.0475 5.76199 12.0475C5.7277 12.0475 5.69341 12.0458 5.65924 12.0425C5.62517 12.0391 5.59122 12.0341 5.55761 12.0273C5.524 12.0207 5.49073 12.0124 5.45791 12.0024C5.42509 11.9925 5.39273 11.9809 5.36104 11.9678C5.32935 11.9547 5.29835 11.94 5.26813 11.9238C5.23792 11.9076 5.20849 11.8901 5.17997 11.8709C5.15146 11.8519 5.12396 11.8314 5.09736 11.8097C5.07088 11.788 5.04542 11.7649 5.0212 11.7407C4.99698 11.7165 4.9739 11.691 4.95217 11.6645C4.93044 11.6379 4.90996 11.6104 4.89094 11.5819C4.87182 11.5534 4.85428 11.524 4.83809 11.4937C4.82191 11.4635 4.8072 11.4325 4.79407 11.4008C4.78095 11.3691 4.7694 11.3369 4.75944 11.304C4.74948 11.2711 4.74122 11.238 4.73455 11.2043C4.72776 11.1707 4.72278 11.1367 4.71938 11.1026C4.7161 11.0685 4.7144 11.0342 4.7144 10.9999C4.7144 10.9656 4.7161 10.9314 4.71938 10.8972C4.72278 10.8631 4.72776 10.8292 4.73455 10.7955C4.74122 10.7619 4.74948 10.7286 4.75944 10.6958C4.7694 10.663 4.78095 10.6307 4.79407 10.599C4.8072 10.5674 4.82191 10.5363 4.83809 10.506C4.85428 10.4758 4.87182 10.4464 4.89094 10.4179C4.90996 10.3893 4.93044 10.3618 4.95217 10.3354C4.9739 10.3088 4.99698 10.2834 5.0212 10.2591C5.04542 10.2349 5.07088 10.2119 5.09736 10.1901C5.12396 10.1683 5.15146 10.148 5.17997 10.1288C5.20849 10.1098 5.23792 10.0922 5.26813 10.076C5.29835 10.0598 5.32935 10.0452 5.36104 10.0321C5.39273 10.0189 5.42509 10.0074 5.45791 9.99744C5.49073 9.98749 5.524 9.97911 5.55761 9.97243C5.59122 9.96576 5.62517 9.96066 5.65924 9.95738C5.69341 9.95399 5.7277 9.95229 5.76199 9.95229C5.79628 9.95229 5.83046 9.95399 5.86464 9.95738C5.89881 9.96066 5.93265 9.96576 5.96637 9.97243C5.99998 9.97911 6.03326 9.98749 6.06607 9.99744C6.09889 10.0074 6.13115 10.0189 6.16283 10.0321C6.19463 10.0452 6.22553 10.0598 6.25586 10.076C6.28607 10.0922 6.3155 10.1098 6.34401 10.1288C6.37253 10.148 6.40003 10.1683 6.42663 10.1901C6.45311 10.2119 6.47846 10.2349 6.50279 10.2591C6.52701 10.2834 6.54998 10.3088 6.57182 10.3354C6.59355 10.3618 6.61392 10.3893 6.63304 10.4179C6.65206 10.4464 6.66971 10.4758 6.68589 10.506C6.70208 10.5363 6.71667 10.5674 6.7298 10.599C6.74293 10.6307 6.75447 10.663 6.76443 10.6958C6.77439 10.7286 6.78276 10.7619 6.78944 10.7955C6.79612 10.8292 6.80121 10.8631 6.80449 10.8972C6.80789 10.9314 6.80958 10.9656 6.80958 10.9999ZM12.0477 10.9999C12.0477 11.0342 12.046 11.0685 12.0426 11.1026C12.0392 11.1367 12.0342 11.1707 12.0275 11.2043C12.0208 11.238 12.0125 11.2711 12.0025 11.304C11.9925 11.3369 11.981 11.3691 11.9679 11.4008C11.9547 11.4325 11.9401 11.4635 11.924 11.4937C11.9078 11.524 11.8901 11.5534 11.8711 11.5819C11.852 11.6104 11.8316 11.6379 11.8098 11.6645C11.788 11.691 11.7651 11.7165 11.7407 11.7407C11.7165 11.7649 11.6912 11.788 11.6646 11.8097C11.6381 11.8314 11.6106 11.8519 11.5821 11.8709C11.5535 11.8901 11.5241 11.9076 11.4938 11.9238C11.4636 11.94 11.4326 11.9547 11.4009 11.9678C11.3692 11.9809 11.337 11.9925 11.3041 12.0024C11.2713 12.0124 11.2381 12.0207 11.2044 12.0273C11.1707 12.0341 11.1369 12.0391 11.1027 12.0425C11.0685 12.0458 11.0344 12.0475 11.0001 12.0475C10.9657 12.0475 10.9315 12.0458 10.8973 12.0425C10.8631 12.0391 10.8293 12.0341 10.7957 12.0273C10.762 12.0207 10.7287 12.0124 10.6959 12.0024C10.663 11.9925 10.6308 11.9809 10.5991 11.9678C10.5674 11.9547 10.5364 11.94 10.5062 11.9238C10.4759 11.9076 10.4466 11.8901 10.418 11.8709C10.3894 11.8519 10.3619 11.8314 10.3354 11.8097C10.3089 11.788 10.2835 11.7649 10.2593 11.7407C10.2349 11.7165 10.212 11.691 10.1902 11.6645C10.1684 11.6379 10.148 11.6104 10.129 11.5819C10.1099 11.5534 10.0922 11.524 10.0761 11.4937C10.06 11.4635 10.0453 11.4325 10.0321 11.4008C10.019 11.3691 10.0075 11.3369 9.99751 11.304C9.98755 11.2711 9.97918 11.238 9.9725 11.2043C9.96583 11.1707 9.96085 11.1367 9.95745 11.1026C9.95406 11.0685 9.95236 11.0342 9.95236 10.9999C9.95236 10.9656 9.95406 10.9314 9.95745 10.8972C9.96085 10.8631 9.96583 10.8292 9.9725 10.7955C9.97918 10.7619 9.98755 10.7286 9.99751 10.6958C10.0075 10.663 10.019 10.6307 10.0321 10.599C10.0453 10.5674 10.06 10.5363 10.0761 10.506C10.0922 10.4758 10.1099 10.4464 10.129 10.4179C10.148 10.3893 10.1684 10.3618 10.1902 10.3354C10.212 10.3088 10.2349 10.2834 10.2593 10.2591C10.2835 10.2349 10.3089 10.2119 10.3354 10.1901C10.3619 10.1683 10.3894 10.148 10.418 10.1288C10.4466 10.1098 10.4759 10.0922 10.5062 10.076C10.5364 10.0598 10.5674 10.0452 10.5991 10.0321C10.6308 10.0189 10.663 10.0074 10.6959 9.99744C10.7287 9.98749 10.762 9.97911 10.7957 9.97243C10.8293 9.96576 10.8631 9.96066 10.8973 9.95738C10.9315 9.95399 10.9657 9.95229 11.0001 9.95229C11.0344 9.95229 11.0685 9.95399 11.1027 9.95738C11.1369 9.96066 11.1707 9.96576 11.2044 9.97243C11.2381 9.97911 11.2713 9.98749 11.3041 9.99744C11.337 10.0074 11.3692 10.0189 11.4009 10.0321C11.4326 10.0452 11.4636 10.0598 11.4938 10.076C11.5241 10.0922 11.5535 10.1098 11.5821 10.1288C11.6106 10.148 11.6381 10.1683 11.6646 10.1901C11.6912 10.2119 11.7165 10.2349 11.7407 10.2591C11.7651 10.2834 11.788 10.3088 11.8098 10.3354C11.8316 10.3618 11.852 10.3893 11.8711 10.4179C11.8901 10.4464 11.9078 10.4758 11.924 10.506C11.9401 10.5363 11.9547 10.5674 11.9679 10.599C11.981 10.6307 11.9925 10.663 12.0025 10.6958C12.0125 10.7286 12.0208 10.7619 12.0275 10.7955C12.0342 10.8292 12.0392 10.8631 12.0426 10.8972C12.046 10.9314 12.0477 10.9656 12.0477 10.9999ZM17.2856 10.9999C17.2856 11.0342 17.284 11.0685 17.2806 11.1026C17.2772 11.1367 17.2723 11.1707 17.2656 11.2043C17.2588 11.238 17.2505 11.2711 17.2406 11.304C17.2306 11.3369 17.2191 11.3691 17.2059 11.4008C17.1928 11.4325 17.1781 11.4635 17.1619 11.4937C17.1457 11.524 17.1282 11.5534 17.1091 11.5819C17.0901 11.6104 17.0696 11.6379 17.0478 11.6645C17.0261 11.691 17.003 11.7165 16.9788 11.7407C16.9546 11.7649 16.9291 11.788 16.9026 11.8097C16.8762 11.8314 16.8486 11.8519 16.82 11.8709C16.7915 11.8901 16.7621 11.9076 16.7319 11.9238C16.7017 11.94 16.6707 11.9547 16.639 11.9678C16.6073 11.9809 16.575 11.9925 16.5421 12.0024C16.5093 12.0124 16.4761 12.0207 16.4424 12.0273C16.4088 12.0341 16.3748 12.0391 16.3408 12.0425C16.3066 12.0458 16.2723 12.0475 16.238 12.0475C16.2037 12.0475 16.1696 12.0458 16.1354 12.0425C16.1012 12.0391 16.0674 12.0341 16.0336 12.0273C16 12.0207 15.9668 12.0124 15.9339 12.0024C15.9011 11.9925 15.8689 11.9809 15.8372 11.9678C15.8055 11.9547 15.7745 11.94 15.7442 11.9238C15.7139 11.9076 15.6845 11.8901 15.656 11.8709C15.6275 11.8519 15.6 11.8314 15.5735 11.8097C15.5469 11.788 15.5216 11.7649 15.4972 11.7407C15.473 11.7165 15.45 11.691 15.4282 11.6645C15.4065 11.6379 15.3861 11.6104 15.367 11.5819C15.348 11.5534 15.3303 11.524 15.3141 11.4937C15.2979 11.4635 15.2833 11.4325 15.2702 11.4008C15.2571 11.3691 15.2455 11.3369 15.2356 11.304C15.2256 11.2711 15.2172 11.238 15.2106 11.2043C15.2039 11.1707 15.1988 11.1367 15.1955 11.1026C15.1921 11.0685 15.1904 11.0342 15.1904 10.9999C15.1904 10.9656 15.1921 10.9314 15.1955 10.8972C15.1988 10.8631 15.2039 10.8292 15.2106 10.7955C15.2172 10.7619 15.2256 10.7286 15.2356 10.6958C15.2455 10.663 15.2571 10.6307 15.2702 10.599C15.2833 10.5674 15.2979 10.5363 15.3141 10.506C15.3303 10.4758 15.348 10.4464 15.367 10.4179C15.3861 10.3893 15.4065 10.3618 15.4282 10.3354C15.45 10.3088 15.473 10.2834 15.4972 10.2591C15.5216 10.2349 15.5469 10.2119 15.5735 10.1901C15.6 10.1683 15.6275 10.148 15.656 10.1288C15.6845 10.1098 15.7139 10.0922 15.7443 10.076C15.7745 10.0598 15.8055 10.0452 15.8372 10.0321C15.8689 10.0189 15.9011 10.0074 15.9339 9.99744C15.9668 9.98749 16 9.97911 16.0336 9.97243C16.0674 9.96576 16.1012 9.96066 16.1354 9.95738C16.1696 9.95399 16.2037 9.95229 16.238 9.95229C16.2723 9.95229 16.3066 9.95399 16.3408 9.95738C16.3748 9.96066 16.4088 9.96576 16.4424 9.97243C16.4761 9.97911 16.5093 9.98749 16.5421 9.99744C16.575 10.0074 16.6073 10.0189 16.639 10.0321C16.6707 10.0452 16.7017 10.0598 16.7319 10.076C16.7621 10.0922 16.7915 10.1098 16.82 10.1288C16.8486 10.148 16.8762 10.1683 16.9026 10.1901C16.9291 10.2119 16.9546 10.2349 16.9788 10.2591C17.003 10.2834 17.0261 10.3088 17.0478 10.3354C17.0696 10.3618 17.0901 10.3893 17.1091 10.4179C17.1282 10.4464 17.1457 10.4758 17.1619 10.506C17.1781 10.5363 17.1928 10.5674 17.2059 10.599C17.2191 10.6307 17.2306 10.663 17.2406 10.6958C17.2505 10.7286 17.2588 10.7619 17.2656 10.7955C17.2723 10.8292 17.2772 10.8631 17.2806 10.8972C17.284 10.9314 17.2856 10.9656 17.2856 10.9999Z" fill="#868889"/>
</svg>
