<svg width="22" height="22" viewBox="0 0 22 22" fill="none" xmlns="http://www.w3.org/2000/svg">
<g clip-path="url(#clip0_1103_5675)">
<path d="M14.5741 3.47399H7.42971C7.40827 3.47399 7.38695 3.47187 7.36584 3.46773C7.34472 3.46349 7.32425 3.45734 7.30441 3.44906C7.28457 3.44089 7.26568 3.43081 7.24786 3.41882C7.22993 3.40694 7.21338 3.39336 7.19821 3.37819C7.18303 3.36291 7.16945 3.34647 7.15746 3.32854C7.14558 3.31071 7.1355 3.29183 7.12723 3.27199C7.11906 3.25215 7.1128 3.23167 7.10866 3.21056C7.10442 3.18955 7.10229 3.16822 7.10229 3.14679V0.326558C7.10229 0.305127 7.10442 0.283802 7.10866 0.262689C7.1128 0.241682 7.11906 0.221205 7.12723 0.201365C7.1355 0.181525 7.14558 0.16264 7.15746 0.14471C7.16945 0.126886 7.18303 0.110335 7.19821 0.0951635C7.21338 0.0799918 7.22993 0.0664116 7.24786 0.0544228C7.26568 0.0425401 7.28457 0.032461 7.30441 0.0241855C7.32425 0.0160162 7.34472 0.00975651 7.36584 0.00561877C7.38695 0.00137495 7.40827 -0.000640869 7.42971 -0.000640869H14.5741C14.5956 -0.000640869 14.6168 0.00137495 14.638 0.00561877C14.6591 0.00975651 14.6795 0.0160162 14.6994 0.0241855C14.7192 0.032461 14.7381 0.0425401 14.7559 0.0544228C14.7739 0.0664116 14.7904 0.0799918 14.8056 0.0951635C14.8208 0.110335 14.8343 0.126886 14.8463 0.14471C14.8582 0.16264 14.8683 0.181525 14.8766 0.201365C14.8847 0.221205 14.891 0.241682 14.8952 0.262689C14.8994 0.283802 14.9015 0.305127 14.9015 0.326558V3.14679C14.9015 3.16822 14.8994 3.18955 14.8952 3.21056C14.891 3.23167 14.8847 3.25215 14.8766 3.27199C14.8683 3.29183 14.8582 3.31071 14.8463 3.32854C14.8343 3.34647 14.8208 3.36291 14.8056 3.37819C14.7904 3.39336 14.7739 3.40694 14.7559 3.41882C14.7381 3.43081 14.7192 3.44089 14.6994 3.44906C14.6795 3.45734 14.6591 3.46349 14.638 3.46773C14.6168 3.47187 14.5956 3.47399 14.5741 3.47399ZM7.75712 2.81949H14.2467V0.653863H7.75712V2.81949Z" fill="#868889"/>
<path d="M17.101 22H4.90311C4.84974 21.9999 4.79648 21.9972 4.74333 21.9919C4.69028 21.9867 4.63755 21.9788 4.58514 21.9684C4.53284 21.9579 4.48117 21.9449 4.43003 21.9294C4.379 21.9138 4.32881 21.8959 4.27948 21.8754C4.23025 21.8551 4.18208 21.8323 4.13498 21.807C4.08787 21.7819 4.04225 21.7545 3.99779 21.7248C3.95345 21.6952 3.91069 21.6634 3.86942 21.6295C3.82815 21.5957 3.78868 21.5599 3.75091 21.5221C3.71314 21.4845 3.67739 21.445 3.64354 21.4037C3.60959 21.3625 3.57787 21.3197 3.54816 21.2754C3.51856 21.231 3.49108 21.1853 3.46594 21.1383C3.44079 21.0913 3.41798 21.0431 3.39751 20.9938C3.37703 20.9446 3.3591 20.8944 3.3435 20.8433C3.32801 20.7923 3.31496 20.7406 3.30457 20.6882C3.29406 20.6359 3.28621 20.5833 3.28091 20.5301C3.2756 20.4771 3.27295 20.4238 3.27295 20.3705V2.65726C3.27295 2.6039 3.2756 2.55074 3.28091 2.49759C3.28621 2.44454 3.29406 2.39181 3.30457 2.33951C3.31496 2.2872 3.32801 2.23553 3.3435 2.1845C3.35899 2.13347 3.37703 2.08329 3.39751 2.03395C3.41798 1.98472 3.44079 1.93656 3.46594 1.88945C3.49108 1.84245 3.51856 1.79672 3.54816 1.75237C3.57787 1.70803 3.60959 1.66527 3.64354 1.624C3.67739 1.58283 3.71314 1.54337 3.75091 1.5056C3.78868 1.46783 3.82815 1.43207 3.86942 1.39823C3.91069 1.36438 3.95345 1.33266 3.99779 1.30295C4.04225 1.27335 4.08787 1.24587 4.13498 1.22073C4.18208 1.19558 4.23025 1.17277 4.27948 1.1523C4.32881 1.13182 4.379 1.11389 4.43003 1.0984C4.48117 1.0828 4.53284 1.06986 4.58514 1.05936C4.63755 1.04896 4.69028 1.04111 4.74333 1.0358C4.79648 1.0305 4.84974 1.02785 4.90311 1.02774H7.42988C7.45142 1.02774 7.47264 1.02986 7.49375 1.03411C7.51487 1.03824 7.53534 1.0445 7.55518 1.05267C7.57502 1.06095 7.59391 1.07103 7.61173 1.08291C7.62966 1.0949 7.64621 1.10848 7.66139 1.12365C7.67656 1.13882 7.69014 1.15537 7.70213 1.1732C7.71401 1.19113 7.72409 1.20991 7.73236 1.22975C7.74064 1.24969 7.74679 1.27006 7.75104 1.29118C7.75517 1.31229 7.7573 1.33351 7.7573 1.35505V2.81959H14.2469V1.35505C14.2469 1.33351 14.249 1.31229 14.2531 1.29118C14.2574 1.27006 14.2635 1.24969 14.2718 1.22975C14.2801 1.20991 14.2901 1.19113 14.302 1.1732C14.314 1.15537 14.3276 1.13882 14.3428 1.12365C14.3579 1.10848 14.3745 1.0949 14.3924 1.08291C14.4102 1.07103 14.4291 1.06095 14.449 1.05267C14.4688 1.0445 14.4893 1.03824 14.5104 1.03411C14.5315 1.02986 14.5527 1.02774 14.5743 1.02774H17.101C17.1544 1.02785 17.2077 1.0305 17.2608 1.0358C17.3139 1.04111 17.3666 1.04896 17.419 1.05936C17.4713 1.06986 17.523 1.0828 17.5741 1.0984C17.6251 1.11389 17.6753 1.13193 17.7247 1.1523C17.7739 1.17277 17.8221 1.19558 17.8692 1.22073C17.9162 1.24587 17.9619 1.27335 18.0064 1.30295C18.0507 1.33266 18.0935 1.36438 18.1347 1.39823C18.176 1.43207 18.2155 1.46783 18.2532 1.5056C18.291 1.54337 18.3268 1.58283 18.3606 1.624C18.3944 1.66527 18.4263 1.70803 18.4559 1.75237C18.4856 1.79672 18.513 1.84245 18.5382 1.88956C18.5634 1.93656 18.5862 1.98472 18.6066 2.03395C18.6271 2.08329 18.645 2.13347 18.6606 2.1845C18.6761 2.23553 18.6892 2.2872 18.6996 2.33951C18.7101 2.39181 18.7179 2.44454 18.7232 2.49759C18.7284 2.55074 18.7312 2.6039 18.7312 2.65726V20.3706C18.7312 20.4239 18.7284 20.4771 18.7232 20.5302C18.7179 20.5833 18.7101 20.636 18.6996 20.6883C18.6891 20.7406 18.6761 20.7923 18.6605 20.8433C18.645 20.8944 18.6271 20.9446 18.6066 20.9938C18.5862 21.0431 18.5634 21.0913 18.5382 21.1383C18.513 21.1854 18.4856 21.231 18.4559 21.2754C18.4263 21.3197 18.3944 21.3626 18.3606 21.4037C18.3268 21.445 18.2909 21.4845 18.2532 21.5222C18.2155 21.5599 18.176 21.5957 18.1347 21.6295C18.0935 21.6635 18.0506 21.6952 18.0062 21.7248C17.9619 21.7545 17.9162 21.7819 17.8692 21.807C17.8221 21.8323 17.7739 21.8551 17.7246 21.8754C17.6753 21.8959 17.6251 21.9138 17.574 21.9294C17.523 21.9449 17.4713 21.9579 17.419 21.9684C17.3666 21.9788 17.3139 21.9867 17.2608 21.9919C17.2077 21.9972 17.1544 21.9999 17.101 22ZM4.90311 1.68224C4.87117 1.68224 4.83924 1.68384 4.80752 1.68702C4.77569 1.6902 4.74418 1.69487 4.71288 1.70113C4.68158 1.70739 4.6506 1.71513 4.62005 1.72447C4.58949 1.7337 4.55947 1.74452 4.52997 1.75672C4.50048 1.76892 4.47162 1.78261 4.4435 1.79768C4.41539 1.81274 4.38801 1.82908 4.36138 1.84691C4.33486 1.86462 4.30929 1.88361 4.28457 1.90388C4.25985 1.92414 4.2363 1.94547 4.2137 1.96807C4.1911 1.99066 4.16967 2.01432 4.14941 2.03894C4.12914 2.06366 4.11015 2.08923 4.09243 2.11575C4.07461 2.14228 4.05827 2.16965 4.0432 2.19776C4.02814 2.22599 4.01445 2.25474 4.00225 2.28423C3.98994 2.31373 3.97923 2.34375 3.96989 2.37431C3.96066 2.40486 3.95292 2.43574 3.94666 2.46703C3.9404 2.49833 3.93562 2.52984 3.93244 2.56167C3.92936 2.59339 3.92767 2.62522 3.92767 2.65716V20.3705C3.92767 20.4024 3.92936 20.4342 3.93244 20.4661C3.93562 20.4978 3.9404 20.5293 3.94666 20.5606C3.95281 20.5919 3.96066 20.6229 3.96989 20.6534C3.97923 20.6839 3.98994 20.7139 4.00225 20.7434C4.01445 20.7729 4.02814 20.8017 4.0432 20.8299C4.05827 20.858 4.07461 20.8854 4.09243 20.9119C4.11015 20.9384 4.12914 20.9641 4.14941 20.9887C4.16967 21.0134 4.1911 21.037 4.2137 21.0596C4.2363 21.0822 4.25985 21.1036 4.28457 21.1239C4.30929 21.1441 4.33486 21.1631 4.36138 21.1808C4.38801 21.1985 4.41539 21.215 4.4435 21.2301C4.47162 21.2451 4.50048 21.2587 4.52997 21.2709C4.55947 21.2832 4.58949 21.2939 4.62005 21.3033C4.6506 21.3125 4.68158 21.3203 4.71288 21.3265C4.74418 21.3328 4.77569 21.3375 4.80752 21.3407C4.83924 21.3438 4.87117 21.3454 4.90311 21.3455H17.101C17.133 21.3454 17.1649 21.3438 17.1966 21.3407C17.2285 21.3375 17.26 21.3328 17.2913 21.3265C17.3226 21.3202 17.3535 21.3125 17.3841 21.3033C17.4147 21.2939 17.4447 21.2832 17.4742 21.2709C17.5037 21.2587 17.5325 21.245 17.5606 21.2301C17.5888 21.215 17.6161 21.1985 17.6427 21.1808C17.6693 21.163 17.6949 21.144 17.7196 21.1239C17.7442 21.1036 17.7678 21.0822 17.7904 21.0596C17.813 21.037 17.8345 21.0134 17.8547 20.9887C17.875 20.9641 17.894 20.9384 17.9117 20.9119C17.9294 20.8854 17.9459 20.858 17.9609 20.8299C17.976 20.8017 17.9897 20.7729 18.0019 20.7434C18.0141 20.7139 18.0249 20.6839 18.0341 20.6534C18.0435 20.6229 18.0512 20.5919 18.0575 20.5606C18.0637 20.5293 18.0685 20.4978 18.0716 20.4661C18.0748 20.4342 18.0764 20.4024 18.0765 20.3705V2.65726C18.0764 2.62533 18.0748 2.5935 18.0716 2.56178C18.0685 2.52995 18.0637 2.49844 18.0575 2.46714C18.0512 2.43584 18.0435 2.40486 18.0341 2.37441C18.0249 2.34386 18.0141 2.31383 18.0019 2.28434C17.9897 2.25484 17.976 2.22599 17.9609 2.19787C17.9459 2.16975 17.9294 2.14238 17.9117 2.11586C17.894 2.08933 17.875 2.06376 17.8547 2.03904C17.8345 2.01443 17.813 1.99077 17.7904 1.96817C17.7678 1.94557 17.7442 1.92425 17.7196 1.90398C17.6949 1.88372 17.6693 1.86473 17.6427 1.84691C17.6161 1.82919 17.5888 1.81285 17.5606 1.79778C17.5325 1.78272 17.5037 1.76903 17.4742 1.75683C17.4447 1.74452 17.4147 1.73381 17.3841 1.72447C17.3535 1.71524 17.3226 1.7075 17.2913 1.70124C17.26 1.69498 17.2285 1.6902 17.1966 1.68713C17.1649 1.68394 17.133 1.68235 17.101 1.68224H14.9017V3.14679C14.9017 3.16833 14.8996 3.18965 14.8953 3.21066C14.8912 3.23177 14.8849 3.25225 14.8767 3.27209C14.8685 3.29193 14.8584 3.31081 14.8465 3.32864C14.8345 3.34657 14.8209 3.36301 14.8058 3.37829C14.7906 3.39346 14.774 3.40704 14.7561 3.41893C14.7383 3.43091 14.7194 3.44099 14.6996 3.44916C14.6796 3.45744 14.6592 3.46359 14.6381 3.46784C14.617 3.47197 14.5957 3.47409 14.5743 3.47409H7.42988C7.40845 3.47409 7.38713 3.47197 7.36601 3.46784C7.3449 3.46359 7.32443 3.45744 7.30459 3.44916C7.28475 3.44099 7.26586 3.43091 7.24804 3.41893C7.23011 3.40704 7.21356 3.39346 7.19838 3.37829C7.18321 3.36301 7.16963 3.34657 7.15764 3.32864C7.14576 3.31081 7.13568 3.29193 7.12741 3.27209C7.11924 3.25225 7.11298 3.23177 7.10884 3.21066C7.10459 3.18965 7.10247 3.16833 7.10247 3.14679V1.68224H4.90311Z" fill="#868889"/>
<path d="M16.3812 7.2525H9.17946C9.15792 7.2525 9.13671 7.25037 9.11559 7.24613C9.09448 7.24199 9.074 7.23573 9.05416 7.22756C9.03432 7.21929 9.01544 7.20921 8.99761 7.19733C8.97968 7.18534 8.96313 7.17176 8.94796 7.15659C8.93279 7.14141 8.91921 7.12486 8.90722 7.10704C8.89534 7.08911 8.88526 7.07033 8.87698 7.05049C8.86881 7.03054 8.86255 7.01017 8.85842 6.98906C8.85417 6.96795 8.85205 6.94673 8.85205 6.92519C8.85205 6.90376 8.85417 6.88243 8.85842 6.86132C8.86255 6.84031 8.86881 6.81984 8.87698 6.8C8.88526 6.78016 8.89534 6.76127 8.90722 6.74334C8.91921 6.72552 8.93279 6.70897 8.94796 6.6938C8.96313 6.67862 8.97968 6.66504 8.99761 6.65316C9.01544 6.64117 9.03432 6.63109 9.05416 6.62282C9.074 6.61465 9.09448 6.60839 9.11559 6.60425C9.13671 6.60001 9.15792 6.59799 9.17946 6.59799H16.3812C16.4027 6.59799 16.424 6.60001 16.4451 6.60425C16.4662 6.60839 16.4866 6.61465 16.5065 6.62282C16.5264 6.63109 16.5453 6.64117 16.5631 6.65316C16.581 6.66504 16.5976 6.67862 16.6127 6.6938C16.6279 6.70897 16.6415 6.72552 16.6535 6.74345C16.6654 6.76127 16.6754 6.78016 16.6837 6.8C16.6919 6.81984 16.6981 6.84031 16.7023 6.86132C16.7065 6.88243 16.7086 6.90376 16.7086 6.92519C16.7086 6.94673 16.7065 6.96795 16.7023 6.98906C16.6981 7.01017 16.6919 7.03054 16.6837 7.05049C16.6754 7.07033 16.6654 7.08911 16.6535 7.10704C16.6415 7.12486 16.6279 7.14141 16.6127 7.15659C16.5976 7.17176 16.581 7.18534 16.5631 7.19733C16.5453 7.20921 16.5264 7.21929 16.5065 7.22756C16.4867 7.23573 16.4662 7.24199 16.4451 7.24613C16.424 7.25037 16.4027 7.2525 16.3812 7.2525Z" fill="#868889"/>
<path d="M6.3582 7.64175C6.3148 7.64186 6.273 7.63358 6.2329 7.61693C6.19279 7.60027 6.15746 7.57661 6.1268 7.54584L5.39124 6.81071C5.37617 6.79543 5.3627 6.77888 5.35082 6.76105C5.33904 6.74323 5.32896 6.72434 5.3209 6.7045C5.31273 6.68466 5.30658 6.66429 5.30244 6.64329C5.2983 6.62217 5.29628 6.60096 5.29639 6.57952C5.29639 6.55809 5.29851 6.53687 5.30276 6.51587C5.307 6.49486 5.31315 6.47449 5.32143 6.45476C5.3296 6.43492 5.33968 6.41614 5.35167 6.39831C5.36355 6.38049 5.37713 6.36404 5.3923 6.34887C5.40737 6.3337 5.42392 6.32023 5.44174 6.30824C5.45957 6.29635 5.47834 6.28628 5.49808 6.27811C5.51792 6.26983 5.53829 6.26368 5.5593 6.25943C5.58041 6.25519 5.60163 6.25307 5.62306 6.25307C5.64449 6.25296 5.66571 6.25498 5.68672 6.25911C5.70772 6.26325 5.7282 6.26941 5.74804 6.27758C5.76788 6.28564 5.78666 6.29561 5.80459 6.30749C5.82241 6.31927 5.83896 6.33275 5.85424 6.34792L6.3582 6.85166L7.76577 5.44483C7.78094 5.42955 7.79749 5.41587 7.81531 5.40377C7.83324 5.39178 7.85213 5.3816 7.87197 5.37322C7.89181 5.36494 7.91239 5.35868 7.9335 5.35444C7.95462 5.35009 7.97594 5.34797 7.99748 5.34797C8.01912 5.34786 8.04045 5.34998 8.06156 5.35412C8.08278 5.35826 8.10326 5.36452 8.1232 5.37269C8.14315 5.38096 8.16203 5.39104 8.17997 5.40303C8.1979 5.41491 8.21455 5.4286 8.22972 5.44377C8.245 5.45905 8.25858 5.4756 8.27057 5.49353C8.28256 5.51146 8.29264 5.53034 8.30081 5.55029C8.30908 5.57024 8.31524 5.59071 8.31948 5.61183C8.32362 5.63304 8.32574 5.65437 8.32563 5.67591C8.32563 5.69744 8.32341 5.71877 8.31916 5.73988C8.31492 5.761 8.30866 5.78158 8.30028 5.80142C8.292 5.82126 8.28182 5.84014 8.26972 5.85807C8.25773 5.8759 8.24405 5.89245 8.22877 5.90762L6.5897 7.54595C6.55904 7.57661 6.52371 7.60027 6.4836 7.61693C6.44339 7.63348 6.4017 7.64175 6.3582 7.64175Z" fill="#868889"/>
<path d="M16.3812 10.7391H9.17946C9.15792 10.7391 9.13671 10.7371 9.11559 10.7328C9.09448 10.7286 9.074 10.7224 9.05416 10.7142C9.03432 10.706 9.01544 10.6959 8.99761 10.6839C8.97968 10.672 8.96313 10.6585 8.94796 10.6433C8.93279 10.6281 8.91921 10.6116 8.90722 10.5936C8.89534 10.5758 8.88526 10.5569 8.87698 10.5371C8.86881 10.5173 8.86255 10.4968 8.85842 10.4758C8.85417 10.4547 8.85205 10.4333 8.85205 10.4119C8.85205 10.3904 8.85417 10.3691 8.85842 10.348C8.86255 10.3269 8.86881 10.3065 8.87698 10.2866C8.88526 10.2668 8.89534 10.248 8.90722 10.2301C8.91921 10.2122 8.93279 10.1957 8.94796 10.1805C8.96313 10.1652 8.97968 10.1518 8.99761 10.1398C9.01544 10.1279 9.03432 10.1178 9.05416 10.1095C9.074 10.1014 9.09448 10.0951 9.11559 10.091C9.13671 10.0867 9.15792 10.0846 9.17946 10.0846H16.3812C16.4027 10.0846 16.424 10.0867 16.4451 10.091C16.4662 10.0951 16.4866 10.1014 16.5065 10.1095C16.5264 10.1178 16.5453 10.1279 16.5631 10.1398C16.581 10.1518 16.5976 10.1652 16.6127 10.1805C16.6279 10.1957 16.6415 10.2122 16.6535 10.2301C16.6654 10.248 16.6754 10.2668 16.6837 10.2866C16.6919 10.3065 16.6981 10.3269 16.7023 10.348C16.7065 10.3691 16.7086 10.3904 16.7086 10.4119C16.7086 10.4333 16.7065 10.4547 16.7023 10.4758C16.6981 10.4968 16.6919 10.5173 16.6837 10.5371C16.6754 10.5569 16.6654 10.5758 16.6535 10.5936C16.6415 10.6116 16.6279 10.6281 16.6127 10.6433C16.5976 10.6585 16.581 10.672 16.5631 10.6839C16.5453 10.6959 16.5264 10.706 16.5065 10.7142C16.4867 10.7224 16.4662 10.7286 16.4451 10.7328C16.424 10.7371 16.4027 10.7391 16.3812 10.7391Z" fill="#868889"/>
<path d="M6.3582 11.1285C6.3148 11.1285 6.273 11.1202 6.2329 11.1035C6.19279 11.087 6.15746 11.0633 6.1268 11.0326L5.39124 10.2973C5.37617 10.2822 5.3627 10.2656 5.35082 10.2478C5.33904 10.2299 5.32896 10.2111 5.3209 10.1912C5.31273 10.1714 5.30658 10.1509 5.30244 10.1299C5.2983 10.1089 5.29628 10.0877 5.29639 10.0663C5.29639 10.0448 5.29851 10.0236 5.30276 10.0026C5.307 9.98159 5.31315 9.96122 5.32143 9.94138C5.3296 9.92164 5.33968 9.90286 5.35167 9.88504C5.36355 9.86722 5.37713 9.85077 5.3923 9.8356C5.40737 9.82043 5.42392 9.80685 5.44174 9.79496C5.45957 9.78308 5.47834 9.773 5.49808 9.76473C5.51792 9.75656 5.53829 9.7503 5.5593 9.74616C5.58041 9.74192 5.60163 9.73979 5.62306 9.73969C5.64449 9.73969 5.66571 9.7417 5.68672 9.74584C5.70772 9.74998 5.7282 9.75613 5.74804 9.7642C5.76788 9.77237 5.78676 9.78234 5.80459 9.79422C5.82241 9.806 5.83896 9.81947 5.85424 9.83454L6.3582 10.3383L7.76566 8.93135C7.78083 8.91617 7.79738 8.90259 7.81531 8.89071C7.83314 8.87872 7.85202 8.86864 7.87186 8.86047C7.89181 8.8522 7.91229 8.84604 7.93329 8.8418C7.95441 8.83766 7.97573 8.83554 7.99716 8.83554C8.0187 8.83554 8.04002 8.83766 8.06114 8.8418C8.08214 8.84604 8.10262 8.8522 8.12257 8.86047C8.14241 8.86864 8.16129 8.87872 8.17912 8.89071C8.19705 8.90259 8.2136 8.91617 8.22877 8.93145C8.24394 8.94662 8.25752 8.96317 8.26951 8.981C8.28139 8.99893 8.29147 9.01771 8.29975 9.03755C8.30792 9.05749 8.31418 9.07797 8.31831 9.09898C8.32256 9.12009 8.32468 9.14131 8.32468 9.16285C8.32468 9.18438 8.32256 9.2056 8.31831 9.22672C8.31418 9.24783 8.30792 9.2682 8.29975 9.28814C8.29147 9.30798 8.28139 9.32687 8.2694 9.34469C8.25752 9.36252 8.24394 9.37907 8.22877 9.39424L6.5897 11.0326C6.55904 11.0633 6.52371 11.087 6.4835 11.1037C6.44339 11.1202 6.4017 11.1285 6.3582 11.1285Z" fill="#868889"/>
<path d="M16.3812 14.2259H9.17946C9.15792 14.2259 9.13671 14.2237 9.11559 14.2195C9.09448 14.2154 9.074 14.2091 9.05416 14.2009C9.03432 14.1926 9.01544 14.1826 8.99761 14.1707C8.97968 14.1587 8.96313 14.1451 8.94796 14.1299C8.93279 14.1148 8.91921 14.0982 8.90722 14.0804C8.89534 14.0625 8.88526 14.0437 8.87698 14.0238C8.86881 14.0039 8.86255 13.9835 8.85842 13.9624C8.85417 13.9413 8.85205 13.9201 8.85205 13.8985C8.85205 13.8771 8.85417 13.8558 8.85842 13.8347C8.86255 13.8137 8.86881 13.7932 8.87698 13.7734C8.88526 13.7535 8.89534 13.7346 8.90722 13.7168C8.91921 13.6989 8.93279 13.6823 8.94796 13.6672C8.96313 13.652 8.97968 13.6384 8.99761 13.6264C9.01544 13.6145 9.03432 13.6045 9.05416 13.5962C9.074 13.588 9.09448 13.5817 9.11559 13.5776C9.13671 13.5734 9.15792 13.5714 9.17946 13.5714H16.3812C16.4027 13.5714 16.424 13.5734 16.4451 13.5776C16.4662 13.5817 16.4866 13.588 16.5065 13.5962C16.5264 13.6045 16.5453 13.6145 16.5631 13.6265C16.581 13.6384 16.5976 13.652 16.6127 13.6672C16.6279 13.6823 16.6415 13.6989 16.6535 13.7168C16.6654 13.7346 16.6754 13.7535 16.6837 13.7734C16.6919 13.7932 16.6981 13.8137 16.7023 13.8347C16.7065 13.8558 16.7086 13.8771 16.7086 13.8985C16.7086 13.9201 16.7065 13.9413 16.7023 13.9624C16.6981 13.9835 16.6919 14.0039 16.6837 14.0238C16.6754 14.0437 16.6654 14.0625 16.6535 14.0804C16.6415 14.0982 16.6279 14.1148 16.6127 14.1299C16.5976 14.1451 16.581 14.1587 16.5631 14.1707C16.5453 14.1826 16.5264 14.1926 16.5065 14.2009C16.4867 14.2091 16.4662 14.2154 16.4451 14.2195C16.424 14.2237 16.4027 14.2259 16.3812 14.2259Z" fill="#868889"/>
<path d="M6.35807 14.615C6.31468 14.6151 6.27288 14.6068 6.23277 14.5902C6.19267 14.5736 6.15734 14.5499 6.12668 14.5192L5.39112 13.7839C5.37626 13.7687 5.363 13.7521 5.35144 13.7343C5.33987 13.7164 5.33 13.6976 5.32215 13.6778C5.3142 13.6581 5.30825 13.6377 5.30422 13.6168C5.3003 13.5959 5.29839 13.5748 5.2986 13.5535C5.29871 13.5322 5.30093 13.5112 5.30518 13.4903C5.30942 13.4695 5.31568 13.4492 5.32396 13.4296C5.33213 13.4098 5.34221 13.3913 5.35409 13.3736C5.36597 13.3558 5.37944 13.3395 5.39451 13.3244C5.40958 13.3094 5.42591 13.2959 5.44363 13.2841C5.46135 13.2722 5.48002 13.2622 5.49965 13.254C5.51928 13.2458 5.53954 13.2396 5.56044 13.2353C5.58134 13.2311 5.60235 13.2288 5.62368 13.2286C5.645 13.2285 5.66612 13.2304 5.68702 13.2344C5.70792 13.2384 5.72829 13.2443 5.74802 13.2523C5.76786 13.2602 5.78664 13.27 5.80446 13.2816C5.82229 13.2932 5.83895 13.3064 5.85412 13.3213L6.35807 13.825L7.76564 12.4181C7.78081 12.403 7.79737 12.3895 7.8153 12.3777C7.83312 12.3659 7.852 12.3559 7.87184 12.3477C7.89168 12.3397 7.91205 12.3335 7.93306 12.3294C7.95417 12.3252 7.97539 12.3232 7.99682 12.3232C8.01826 12.3233 8.03948 12.3254 8.06048 12.3297C8.08149 12.3338 8.10186 12.3401 8.1217 12.3483C8.14154 12.3565 8.16032 12.3666 8.17814 12.3785C8.19597 12.3904 8.21241 12.404 8.22758 12.4191C8.24275 12.4343 8.25623 12.4507 8.26822 12.4686C8.2801 12.4864 8.29018 12.5052 8.29845 12.5249C8.30662 12.5447 8.31288 12.5651 8.31713 12.5861C8.32127 12.6071 8.32339 12.6283 8.32349 12.6498C8.32349 12.6712 8.32148 12.6924 8.31734 12.7134C8.3132 12.7344 8.30715 12.7549 8.29899 12.7748C8.29082 12.7946 8.28084 12.8134 8.26896 12.8313C8.25718 12.8491 8.24371 12.8657 8.22864 12.8809L6.58957 14.5192C6.55891 14.5499 6.52358 14.5736 6.48348 14.5902C6.44327 14.6068 6.40157 14.6151 6.35807 14.615Z" fill="#868889"/>
<path d="M16.3812 17.7125H9.17946C9.15792 17.7125 9.13671 17.7103 9.11559 17.7062C9.09448 17.702 9.074 17.6958 9.05416 17.6875C9.03432 17.6794 9.01544 17.6693 8.99761 17.6573C8.97968 17.6454 8.96313 17.6318 8.94796 17.6167C8.93279 17.6015 8.91921 17.5849 8.90722 17.567C8.89534 17.5492 8.88526 17.5303 8.87698 17.5105C8.86881 17.4906 8.86255 17.4701 8.85842 17.449C8.85417 17.428 8.85205 17.4067 8.85205 17.3853C8.85205 17.3637 8.85417 17.3425 8.85842 17.3214C8.86255 17.3003 8.86881 17.2798 8.87698 17.26C8.88526 17.2401 8.89534 17.2212 8.90722 17.2034C8.91921 17.1856 8.93279 17.169 8.94796 17.1539C8.96313 17.1386 8.97968 17.1251 8.99761 17.1131C9.01544 17.1012 9.03432 17.0912 9.05416 17.0829C9.074 17.0747 9.09448 17.0685 9.11559 17.0643C9.13671 17.0601 9.15792 17.058 9.17946 17.058H16.3812C16.4027 17.058 16.424 17.0601 16.4451 17.0643C16.4662 17.0685 16.4866 17.0747 16.5065 17.0829C16.5264 17.0912 16.5453 17.1012 16.5631 17.1131C16.581 17.1251 16.5976 17.1386 16.6127 17.1539C16.6279 17.169 16.6415 17.1856 16.6535 17.2034C16.6654 17.2212 16.6754 17.2401 16.6837 17.26C16.6919 17.2798 16.6981 17.3003 16.7023 17.3214C16.7065 17.3425 16.7086 17.3637 16.7086 17.3853C16.7086 17.4067 16.7065 17.428 16.7023 17.449C16.6981 17.4701 16.6919 17.4906 16.6837 17.5105C16.6754 17.5303 16.6654 17.5492 16.6535 17.567C16.6415 17.5849 16.6279 17.6015 16.6127 17.6167C16.5976 17.6318 16.581 17.6454 16.5631 17.6573C16.5453 17.6693 16.5264 17.6794 16.5065 17.6875C16.4867 17.6958 16.4662 17.702 16.4451 17.7062C16.424 17.7103 16.4027 17.7125 16.3812 17.7125Z" fill="#868889"/>
<path d="M6.35815 18.1018C6.31476 18.1018 6.27295 18.0936 6.23285 18.077C6.19275 18.0603 6.15742 18.0367 6.12675 18.0059L5.39119 17.2707C5.37592 17.2555 5.36223 17.2391 5.35024 17.2211C5.33815 17.2033 5.32796 17.1844 5.31968 17.1646C5.31141 17.1446 5.30515 17.1242 5.30091 17.103C5.29666 17.0819 5.29443 17.0606 5.29443 17.0391C5.29443 17.0175 5.29645 16.9962 5.30059 16.9751C5.30483 16.954 5.31098 16.9334 5.31926 16.9135C5.32743 16.8936 5.33751 16.8747 5.3495 16.8568C5.36149 16.8389 5.37507 16.8223 5.39034 16.807C5.40552 16.7919 5.42217 16.7782 5.4401 16.7663C5.45793 16.7543 5.47692 16.7442 5.49676 16.736C5.5167 16.7278 5.53729 16.7215 5.5584 16.7174C5.57951 16.7133 5.60084 16.7111 5.62238 16.7112C5.64402 16.7112 5.66534 16.7134 5.68646 16.7176C5.70757 16.7218 5.72805 16.7282 5.74799 16.7365C5.76783 16.7448 5.78672 16.7549 5.80454 16.7669C5.82247 16.7789 5.83902 16.7926 5.85419 16.8079L6.35815 17.3116L7.76561 15.9048C7.78079 15.8894 7.79734 15.8757 7.81516 15.8637C7.83309 15.8516 7.85198 15.8416 7.87182 15.8332C7.89176 15.8249 7.91224 15.8187 7.93335 15.8143C7.95457 15.8101 7.9759 15.8079 7.99743 15.8078C8.01897 15.8078 8.0403 15.8098 8.06152 15.8141C8.08263 15.8182 8.10321 15.8244 8.12305 15.8327C8.143 15.8408 8.16199 15.851 8.17992 15.8629C8.19785 15.8749 8.2144 15.8885 8.22968 15.9037C8.24485 15.919 8.25853 15.9356 8.27042 15.9535C8.28241 15.9714 8.29249 15.9903 8.30076 16.0103C8.30893 16.0301 8.31519 16.0507 8.31933 16.0718C8.32347 16.0929 8.32559 16.1143 8.32548 16.1359C8.32548 16.1574 8.32336 16.1787 8.31901 16.1999C8.31477 16.221 8.30851 16.2414 8.30023 16.2614C8.29185 16.2812 8.28166 16.3001 8.26968 16.3179C8.25758 16.3359 8.24389 16.3524 8.22862 16.3676L6.58965 18.0059C6.55899 18.0366 6.52355 18.0603 6.48345 18.0769C6.44334 18.0936 6.40165 18.1018 6.35815 18.1018Z" fill="#868889"/>
</g>
<defs>
<clipPath id="clip0_1103_5675">
<rect width="22" height="22" fill="white"/>
</clipPath>
</defs>
</svg>
