<svg width="59" height="28" viewBox="0 0 59 28" fill="none" xmlns="http://www.w3.org/2000/svg">
<path fill-rule="evenodd" clip-rule="evenodd" d="M0 0H59V28H0V0Z" fill="white" fill-opacity="0.01"/>
<path d="M29.3605 17.15C34.0154 17.15 37.789 13.3892 37.789 8.75001C37.789 4.11081 34.0154 0.350006 29.3605 0.350006C24.7055 0.350006 20.9319 4.11081 20.9319 8.75001C20.9319 13.3892 24.7055 17.15 29.3605 17.15Z" fill="#00AED6"/>
<path fill-rule="evenodd" clip-rule="evenodd" d="M34.2771 8.50486C34.2068 7.45486 33.2938 6.61486 32.2402 6.68486H26.9021C26.6914 6.68486 26.5509 6.54486 26.5509 6.33517C26.5509 6.12517 26.6914 5.98517 26.9021 5.98517H32.3104C32.2751 5.28517 31.7485 4.55001 31.0811 4.44517C29.5009 4.16517 27.8854 4.16517 26.3402 4.44517C25.4621 4.58517 24.7949 5.46001 24.6545 6.30001C24.4086 7.94762 24.4086 9.6224 24.6545 11.27C24.8302 12.2152 25.6025 12.9849 26.5862 13.1249C28.5528 13.37 30.5195 13.37 32.4509 13.1249C33.329 13.02 33.8909 12.2152 34.0664 11.3752C34.2421 10.3952 34.312 9.45001 34.2771 8.50486ZM32.5211 9.66001V9.97486C32.5211 10.1849 32.3807 10.3249 32.1699 10.3249C31.9592 10.3249 31.8188 10.1849 31.8188 9.97517V9.66001C31.7136 9.55486 31.643 9.41486 31.643 9.27486C31.643 8.99486 31.889 8.75001 32.1699 8.75001C32.4509 8.75001 32.6969 8.99517 32.6969 9.27517C32.6969 9.41517 32.6263 9.55517 32.5211 9.66001Z" fill="white"/>
<path d="M16.6474 25.55C16.9986 26.0752 17.5955 26.3552 18.2276 26.32C18.9653 26.32 19.4919 25.8649 19.4919 25.2349V24.8852C19.1058 25.27 18.5439 25.48 17.9819 25.4452C16.6121 25.48 15.4883 24.43 15.4534 23.0652C15.4181 21.7 16.4717 20.58 17.8415 20.5452H17.9467C18.5086 20.51 19.0705 20.72 19.4919 21.1052V20.65H20.7562V25.2C20.7562 26.53 19.7026 27.44 18.2276 27.44C17.2443 27.51 16.3312 27.09 15.6991 26.32L16.6474 25.55ZM19.4569 22.7152C19.4569 22.19 18.8598 21.7 18.1927 21.7C17.3498 21.7 16.7879 22.2252 16.7879 22.9949C16.7526 23.66 17.2443 24.2549 17.9467 24.3249H18.1574C18.895 24.3249 19.4919 23.87 19.4919 23.31V22.7152H19.4569ZM24.0574 20.51C25.6026 20.51 26.6915 21.5949 26.6915 22.9949C26.6915 24.3949 25.5677 25.48 24.0574 25.48C22.6879 25.55 21.4939 24.5 21.4236 23.1349C21.3534 21.77 22.3717 20.58 23.7415 20.51H24.0574ZM24.0574 21.6649C23.8821 21.6648 23.7085 21.6991 23.5465 21.766C23.3845 21.8328 23.2374 21.9308 23.1134 22.0543C22.9895 22.1779 22.8912 22.3246 22.8242 22.486C22.7572 22.6474 22.7227 22.8205 22.7229 22.9952C22.7228 23.1698 22.7572 23.3428 22.8243 23.5042C22.8913 23.6656 22.9896 23.8123 23.1136 23.9358C23.2375 24.0593 23.3846 24.1573 23.5466 24.2241C23.7085 24.2909 23.8821 24.3252 24.0574 24.3252C24.2327 24.3252 24.4063 24.2909 24.5683 24.2241C24.7302 24.1572 24.8774 24.0592 25.0013 23.9357C25.1253 23.8121 25.2236 23.6655 25.2906 23.504C25.3576 23.3426 25.392 23.1696 25.3919 22.9949C25.4272 22.2949 24.8653 21.7 24.1979 21.6649H24.0574ZM27.4288 20.65H28.6931V21.07H28.7284C29.1498 20.6849 29.6764 20.51 30.2383 20.51C31.6081 20.5452 32.6967 21.6649 32.6617 23.03C32.6485 23.6664 32.3889 24.273 31.9373 24.7231C31.4856 25.1731 30.8769 25.4317 30.2383 25.4449C29.7067 25.4432 29.1896 25.2715 28.7633 24.9549H28.7284V27.3H27.4288V20.65ZM29.9927 21.6649C29.2903 21.6649 28.7284 22.1552 28.7284 22.68V23.2749C28.7284 23.8349 29.2903 24.29 30.0276 24.29C30.7653 24.29 31.3621 23.6952 31.3272 22.96C31.3272 22.26 30.73 21.6652 29.9927 21.6652V21.6649ZM35.12 22.54C35.9629 22.4349 36.2439 22.2949 36.2439 22.05C36.2439 21.7349 35.9276 21.56 35.401 21.56C34.8741 21.5252 34.3474 21.8752 34.2419 22.4L33.0129 22.1549C33.1883 21.21 34.1717 20.51 35.401 20.51C36.7705 20.51 37.6133 21.21 37.6133 22.33V25.3052H36.3843V24.78C35.9979 25.2352 35.401 25.48 34.8038 25.41C33.7855 25.41 33.0479 24.85 33.0479 24.01C33.0479 23.17 33.6098 22.75 35.12 22.54ZM36.3141 23.03C36.1736 23.2052 35.9276 23.31 35.2955 23.4152C34.5229 23.5552 34.2419 23.6952 34.2419 23.9752C34.2419 24.2552 34.4879 24.3952 34.9796 24.3952C35.7169 24.3952 36.3141 24.0449 36.3141 23.59V23.03ZM39.9312 25.06L37.7891 20.65H39.2288L40.6689 23.6952H40.7038L42.1086 20.65H43.5486L40.3177 27.3H38.8427L39.9312 25.06Z" fill="black"/>
</svg>
