<svg width="28" height="18" viewBox="0 0 28 18" fill="none" xmlns="http://www.w3.org/2000/svg">
<path d="M27.8222 8.39086C27.572 8.04818 21.612 0 13.9999 0C6.38787 0 0.42755 8.04818 0.177681 8.39053C-0.059227 8.71564 -0.059227 9.15658 0.177681 9.48169C0.42755 9.82437 6.38787 17.8725 13.9999 17.8725C21.612 17.8725 27.572 9.82432 27.8222 9.48196C28.0594 9.15691 28.0594 8.71564 27.8222 8.39086ZM13.9999 16.0237C8.39284 16.0237 3.5365 10.6819 2.09892 8.93565C3.53464 7.18782 8.38081 1.84888 13.9999 1.84888C19.6068 1.84888 24.4628 7.18968 25.9009 8.9369C24.4652 10.6847 19.6191 16.0237 13.9999 16.0237Z" fill="#868889"/>
<path d="M14 4.10742C11.3413 4.10742 9.17825 6.27369 9.17825 8.93627C9.17825 11.5989 11.3413 13.7651 14 13.7651C16.6587 13.7651 18.8217 11.5989 18.8217 8.93627C18.8217 6.27369 16.6587 4.10742 14 4.10742ZM14 12.1555C12.2275 12.1555 10.7855 10.7114 10.7855 8.93627C10.7855 7.16117 12.2275 5.71707 14 5.71707C15.7725 5.71707 17.2145 7.16117 17.2145 8.93627C17.2145 10.7114 15.7725 12.1555 14 12.1555Z" fill="#868889"/>
</svg>
