<svg width="29" height="7" viewBox="0 0 29 7" fill="none" xmlns="http://www.w3.org/2000/svg">
<path d="M1.20566 5.08536C1.56001 5.61524 2.16225 5.89776 2.80009 5.86229C3.54438 5.86229 4.07575 5.40304 4.07575 4.76737V4.41453C3.68612 4.80284 3.11916 5.01473 2.5522 4.97957C1.17007 5.01473 0.0361458 3.95528 0.000868157 2.57815C-0.0347245 1.20071 1.02833 0.0706297 2.41046 0.0354716H2.51661C3.08357 -3.25096e-07 3.65053 0.211888 4.07575 0.60051V0.141259H5.35141V4.73221C5.35141 6.07418 4.28836 6.99237 2.80009 6.99237C1.8079 7.063 0.88659 6.63922 0.248757 5.86229L1.20566 5.08536ZM4.04047 2.225C4.04047 1.69512 3.43792 1.20071 2.76481 1.20071C1.91437 1.20071 1.3474 1.73059 1.3474 2.50721C1.31181 3.17835 1.8079 3.77855 2.51661 3.84918H2.72922C3.47351 3.84918 4.07575 3.39024 4.07575 2.8252V2.225H4.04047ZM8.68232 0C10.2415 0 11.3401 1.09461 11.3401 2.50721C11.3401 3.91981 10.2062 5.01473 8.68232 5.01473C7.3005 5.08536 6.09571 4.02591 6.02484 2.64847C5.95397 1.27134 6.98143 0.07063 8.36356 0H8.68232ZM8.68232 1.16524C8.50544 1.16515 8.33028 1.19982 8.16685 1.26725C8.00342 1.33468 7.85493 1.43355 7.72988 1.55822C7.60482 1.68288 7.50564 1.83089 7.43802 1.99378C7.3704 2.15667 7.33566 2.33124 7.33578 2.50752C7.3357 2.68377 7.37047 2.85832 7.43811 3.02117C7.50575 3.18402 7.60493 3.33199 7.72999 3.45662C7.85504 3.58125 8.00352 3.6801 8.16692 3.74751C8.33033 3.81492 8.50546 3.84957 8.68232 3.84949C8.8592 3.84957 9.03436 3.81491 9.19778 3.74748C9.36121 3.68005 9.5097 3.58117 9.63476 3.45651C9.75981 3.33185 9.85899 3.18384 9.92661 3.02095C9.99423 2.85806 10.029 2.68349 10.0288 2.50721C10.0644 1.80091 9.49748 1.20071 8.82406 1.16524H8.68232ZM12.0841 0.141259H13.3598V0.565039H13.3953C13.8206 0.176417 14.3519 0 14.9189 0C16.301 0.035472 17.3994 1.16524 17.3641 2.54268C17.3507 3.18478 17.0888 3.79688 16.6331 4.25098C16.1774 4.70508 15.5632 4.96603 14.9189 4.97926C14.3825 4.97762 13.8608 4.8043 13.4306 4.48485H13.3953V6.85111H12.0841V0.141259ZM14.671 1.16524C13.9623 1.16524 13.3953 1.65996 13.3953 2.18953V2.78973C13.3953 3.35477 13.9623 3.81402 14.7063 3.81402C15.4506 3.81402 16.0528 3.21382 16.0175 2.47205C16.0175 1.76575 15.415 1.16555 14.671 1.16555V1.16524ZM19.8445 2.04827C20.695 1.94217 20.9785 1.80091 20.9785 1.55386C20.9785 1.23587 20.6594 1.05945 20.128 1.05945C19.5963 1.02429 19.065 1.37744 18.9585 1.90701L17.7184 1.65965C17.8954 0.706298 18.8876 0 20.128 0C21.5098 0 22.3603 0.7063 22.3603 1.83638V4.83831H21.1202V4.30843C20.7303 4.76768 20.128 5.01473 19.5255 4.9441C18.498 4.9441 17.7537 4.37906 17.7537 3.5315C17.7537 2.68394 18.3207 2.26016 19.8445 2.04827ZM21.0493 2.54268C20.9076 2.71941 20.6594 2.8252 20.0216 2.9313C19.242 3.07256 18.9585 3.21382 18.9585 3.49634C18.9585 3.77886 19.2067 3.92012 19.7028 3.92012C20.4468 3.92012 21.0493 3.56666 21.0493 3.10772V2.54268ZM24.699 4.59095L22.5376 0.141259H23.9903L25.4433 3.21382H25.4786L26.896 0.141259H28.349L25.0889 6.85111H23.6007L24.699 4.59095Z" fill="black"/>
</svg>
