<svg width="20" height="20" viewBox="0 0 20 20" fill="none" xmlns="http://www.w3.org/2000/svg">
<path d="M9.99382 19.9984C9.92799 19.9984 9.86133 19.9826 9.80133 19.9509L0.225182 14.9512C0.0876897 14.8795 0.00102774 14.737 0.00102774 14.582V5.20753C0.00102774 5.06337 0.0760237 4.92921 0.198517 4.85338C0.32101 4.77755 0.475169 4.77088 0.603495 4.83505L10.1796 9.62646C10.3205 9.69728 10.4096 9.84144 10.4096 9.99893V19.5817C10.4096 19.7276 10.3338 19.8626 10.2088 19.9384C10.1438 19.9784 10.0688 19.9984 9.99382 19.9984ZM0.834316 14.3295L9.57717 18.8943V10.2564L0.834316 5.88166V14.3295Z" fill="#28B446"/>
<path d="M10.0072 19.9985C9.93222 19.9985 9.85723 19.9785 9.7914 19.9385C9.66724 19.8626 9.59058 19.7276 9.59058 19.5818V9.999C9.59058 9.8415 9.67974 9.69735 9.82056 9.62652L19.3967 4.83511C19.5242 4.77011 19.6792 4.77678 19.8017 4.85344C19.925 4.92927 20 5.06343 20 5.20759V14.5821C20 14.7371 19.9134 14.8796 19.7759 14.9512L10.1997 19.951C10.1397 19.9826 10.073 19.9985 10.0072 19.9985ZM10.4239 10.2565V18.8943L19.1667 14.3296V5.88172L10.4239 10.2565ZM19.5834 14.5821H19.5917H19.5834Z" fill="#28B446"/>
<path d="M0.41751 5.62428C0.264185 5.62428 0.117526 5.54012 0.044197 5.39429C-0.0591307 5.18847 0.0250314 4.93848 0.230854 4.83515L9.82033 0.0437476C9.93783 -0.0145825 10.0762 -0.0145825 10.1928 0.0437476L19.769 4.83515C19.9748 4.93848 20.0581 5.18847 19.9556 5.39429C19.8523 5.60011 19.6031 5.68261 19.3965 5.58095L10.007 0.882036L0.604167 5.58011C0.54417 5.61011 0.48084 5.62428 0.41751 5.62428Z" fill="#28B446"/>
<path d="M15.0004 12.4988C14.7704 12.4988 14.5837 12.3121 14.5837 12.0822V7.75656L5.23758 3.08015C5.03176 2.97765 4.94843 2.72683 5.05175 2.52101C5.15508 2.31519 5.40507 2.23269 5.61089 2.33435L15.187 7.12576C15.3279 7.19742 15.417 7.34158 15.417 7.49907V12.0822C15.417 12.3121 15.2304 12.4988 15.0004 12.4988Z" fill="#28B446"/>
</svg>
