<svg width="23" height="22" viewBox="0 0 23 22" fill="none" xmlns="http://www.w3.org/2000/svg">
<path d="M5.03427 18.8695L4.68252 16.384C4.63245 16.0302 4.30473 15.7833 3.9513 15.834C3.59749 15.8841 3.35129 16.2115 3.40137 16.5653L3.48013 17.1219C2.80843 16.2929 2.27359 15.353 1.90308 14.3399C-0.719623 7.16916 5.61427 -0.062793 12.999 1.51249C13.3484 1.58685 13.6921 1.3642 13.7667 1.01474C13.8413 0.66528 13.6185 0.321559 13.269 0.246983C4.93015 -1.53214 -2.30275 6.60792 0.68787 14.7844C1.10686 15.93 1.7114 16.9936 2.47087 17.932L1.84571 17.8119C1.4947 17.7446 1.15568 17.9743 1.08827 18.3252C1.02085 18.6761 1.25066 19.0152 1.60154 19.0826L4.21639 19.5849C4.68731 19.7178 5.09672 19.31 5.03427 18.8695Z" fill="#28B446"/>
<path d="M21.3401 7.22265C20.9211 6.07701 20.3165 5.01345 19.5571 4.07507L20.1823 4.19515C20.533 4.26243 20.8723 4.03275 20.9397 3.68187C21.0071 3.33095 20.7773 2.99184 20.4264 2.92443L17.8111 2.42198C17.3461 2.29112 16.9303 2.69005 16.9937 3.13746L17.3454 5.623C17.3912 5.94606 17.668 6.17941 17.9852 6.17941C18.3807 6.17941 18.6816 5.8299 18.6266 5.44167L18.5478 4.88505C19.2195 5.71401 19.7544 6.65399 20.1249 7.66704C21.9617 12.6891 19.3783 18.2718 14.3661 20.1118C12.6514 20.7413 10.8058 20.8735 9.02897 20.4945C8.67965 20.4199 8.33579 20.6427 8.26122 20.9922C8.18664 21.3417 8.40951 21.6854 8.75897 21.76C10.7748 22.1901 12.8679 22.0401 14.812 21.3265C20.507 19.2359 23.4267 12.9276 21.3401 7.22265Z" fill="#28B446"/>
<path d="M17.7206 11.0374C17.7206 7.33305 14.7119 4.31935 11.0138 4.31935C7.31567 4.31935 4.30702 7.33305 4.30702 11.0374C4.30702 14.7417 7.31567 17.7554 11.0138 17.7554C14.7119 17.7554 17.7206 14.7417 17.7206 11.0374ZM5.60099 11.0374C5.60099 8.04654 8.02917 5.61332 11.0138 5.61332C13.9984 5.61332 16.4266 8.04654 16.4266 11.0374C16.4266 14.0282 13.9984 16.4614 11.0138 16.4614C8.02917 16.4614 5.60099 14.0282 5.60099 11.0374Z" fill="#28B446"/>
<path d="M17.7206 11.0374C17.7206 7.33305 14.7119 4.31935 11.0138 4.31935C7.31567 4.31935 4.30702 7.33305 4.30702 11.0374C4.30702 14.7417 7.31567 17.7554 11.0138 17.7554C14.7119 17.7554 17.7206 14.7417 17.7206 11.0374ZM5.60099 11.0374C5.60099 8.04654 8.02917 5.61332 11.0138 5.61332C13.9984 5.61332 16.4266 8.04654 16.4266 11.0374C16.4266 14.0282 13.9984 16.4614 11.0138 16.4614C8.02917 16.4614 5.60099 14.0282 5.60099 11.0374Z" fill="#28B446"/>
<path d="M11.6608 14.6715V14.1315C12.7819 14.1315 13.562 13.2516 13.562 12.261C13.562 11.2296 12.7239 10.3905 11.6938 10.3905H10.3339C10.0172 10.3905 9.75961 10.1318 9.75961 9.81391C9.75961 9.50707 10.0011 9.2374 10.3429 9.2374H11.6449C11.8734 9.23969 12.0995 9.34265 12.2655 9.52014C12.5096 9.78109 12.919 9.79472 13.18 9.55063C13.4409 9.30655 13.4545 8.89713 13.2105 8.63618C12.8047 8.20236 12.2402 7.95042 11.6608 7.94374V7.40342C11.6608 7.04611 11.3711 6.75644 11.0138 6.75644C10.6565 6.75644 10.3668 7.04611 10.3668 7.40342V7.94348C9.24569 7.94348 8.4656 8.82338 8.4656 9.81395C8.4656 10.8454 9.3037 11.6845 10.3338 11.6845H11.6937C12.0104 11.6845 12.268 11.9431 12.268 12.261C12.268 12.5811 12.0097 12.8376 11.6938 12.8376C11.6908 12.8376 11.6877 12.8375 11.6847 12.8375H10.264C10.1028 12.8359 9.93136 12.7774 9.781 12.673C9.48753 12.469 9.08437 12.5416 8.88049 12.835C8.67656 13.1285 8.74911 13.5316 9.04253 13.7355C9.4855 14.0434 9.89781 14.1315 10.3668 14.1315V14.6716C10.3668 15.0289 10.6565 15.3186 11.0138 15.3186C11.3711 15.3185 11.6608 15.0288 11.6608 14.6715Z" fill="#28B446"/>
</svg>
