<svg width="64" height="53" viewBox="0 0 64 53" fill="none" xmlns="http://www.w3.org/2000/svg">
<path d="M60.7934 1.26362C60.0917 0.753233 59.2963 0.386098 58.4526 0.183186C57.609 -0.0197255 56.7336 -0.0544398 55.8765 0.081028C55.0194 0.216496 54.1974 0.51949 53.4575 0.972704C52.7175 1.42592 52.0741 2.02047 51.564 2.7224L25.793 38.13L9.53173 26.5803C8.22754 25.6527 6.60829 25.2812 5.03019 25.5475C3.45209 25.8138 2.04441 26.6961 1.11682 28.0003C0.189237 29.3044 -0.182271 30.9237 0.0840246 32.5018C0.350321 34.0799 1.23261 35.4876 2.53679 36.4152L24.3341 51.8959C25.0054 52.3724 25.7679 52.7052 26.5737 52.8736C27.3796 53.0419 28.2115 53.0422 29.0175 52.8743C29.8763 52.7403 30.7002 52.4381 31.442 51.9851C32.1838 51.5321 32.8289 50.9371 33.3403 50.2342L62.2531 10.4981C63.2836 9.07918 63.7086 7.30916 63.4347 5.57703C63.1609 3.8449 62.2105 2.29236 60.7925 1.26059" fill="#D6F0CB"/>
</svg>
