<svg width="24" height="23" viewBox="0 0 24 23" fill="none" xmlns="http://www.w3.org/2000/svg">
<path d="M19.9687 22.4735H4.03122C2.84228 22.4735 1.87497 21.5073 1.87497 20.3197V8.98751C1.87497 8.57378 2.21073 8.23834 2.62497 8.23834C3.0392 8.23834 3.37497 8.57378 3.37497 8.98751V20.3197C3.37497 20.6811 3.66934 20.9752 4.03122 20.9752H19.9687C20.3306 20.9752 20.625 20.6811 20.625 20.3197V8.98751C20.625 8.57378 20.9607 8.23834 21.375 8.23834C21.7892 8.23834 22.125 8.57378 22.125 8.98751V20.3197C22.125 21.5073 21.1577 22.4735 19.9687 22.4735Z" fill="#A0A3B1"/>
<path d="M23.25 11.6094C23.058 11.6094 22.8661 11.5363 22.7197 11.3899L13.3921 2.07272C12.6245 1.30595 11.3755 1.30595 10.6079 2.07272L1.28033 11.39C0.987457 11.6826 0.512566 11.6826 0.219691 11.39C-0.0732305 11.0974 -0.0732305 10.6231 0.219691 10.3305L9.54725 1.01321C10.8997 -0.337736 13.1003 -0.337736 14.4527 1.01321L23.7803 10.3305C24.0732 10.6231 24.0732 11.0974 23.7803 11.3899C23.6339 11.5363 23.4419 11.6094 23.25 11.6094Z" fill="#A0A3B1"/>
<path d="M15.0001 22.4736H9.00006C8.58583 22.4736 8.25006 22.1381 8.25006 21.7244V15.0755C8.25006 13.7846 9.30147 12.7344 10.5938 12.7344H13.4063C14.6987 12.7344 15.7501 13.7846 15.7501 15.0755V21.7244C15.7501 22.1381 15.4143 22.4736 15.0001 22.4736ZM9.75006 20.9752H14.2501V15.0755C14.2501 14.6108 13.8715 14.2327 13.4063 14.2327H10.5938C10.1286 14.2327 9.75006 14.6108 9.75006 15.0755V20.9752Z" fill="#A0A3B1"/>
</svg>
