<svg width="20" height="20" viewBox="0 0 20 20" fill="none" xmlns="http://www.w3.org/2000/svg">
<mask id="mask0_0_39" style="mask-type:alpha" maskUnits="userSpaceOnUse" x="0" y="0" width="20" height="20">
<circle cx="10" cy="10" r="10" fill="#CC0000"/>
</mask>
<g mask="url(#mask0_0_39)">
<circle cx="10" cy="10" r="10" fill="#CC0000"/>
<circle cx="9.99979" cy="10" r="7.14286" fill="white"/>
<path d="M1.71436 1.71423V18.2857H18.2858V1.71423H1.71436ZM7.66833 11.0605V8.10666C7.66833 6.995 9.10521 6.46126 9.86543 7.75314C9.92067 7.84635 11.118 9.90881 11.118 9.90881V8.10666C11.118 6.995 12.5541 6.46126 13.3144 7.75314C13.3696 7.84635 14.5669 9.90881 14.5669 9.90881V7.02123H15.2836V11.8691C15.2854 11.9018 15.2761 11.9343 15.2572 11.9611C15.2382 11.9879 15.2108 12.0075 15.1793 12.0168C15.1034 12.0375 15.0233 11.9906 14.9646 11.8912C14.9529 11.8718 14.3432 10.8237 13.7576 9.81076L12.6833 7.96097C12.5327 7.7055 12.3083 7.66061 12.1488 7.70411C12.0569 7.72983 11.9762 7.78536 11.9193 7.86199C11.8625 7.93861 11.8327 8.03197 11.8347 8.12738V11.8691C11.8363 11.9018 11.827 11.9342 11.8081 11.961C11.7892 11.9878 11.7618 12.0074 11.7304 12.0168C11.6538 12.0375 11.5737 11.9906 11.5157 11.8912C11.5053 11.8739 10.9398 10.8996 10.3936 9.95783C9.69764 8.75778 9.24055 7.97064 9.23364 7.9589C9.08312 7.70273 8.85802 7.65854 8.69714 7.70204C8.60518 7.72773 8.52435 7.78324 8.46736 7.85986C8.41037 7.93647 8.38045 8.02984 8.38228 8.12531V11.7883C8.37917 11.837 8.35837 11.8829 8.32378 11.9174C8.2892 11.9518 8.24321 11.9725 8.19448 11.9754H6.33502C5.81055 11.9754 5.30756 11.7671 4.9367 11.3962C4.56584 11.0253 4.3575 10.5223 4.3575 9.99788C4.3575 9.47341 4.56584 8.97041 4.9367 8.59956C5.30756 8.2287 5.81055 8.02035 6.33502 8.02035H7.30169V8.73569H6.34331C6.00855 8.73569 5.68751 8.86867 5.4508 9.10537C5.2141 9.34208 5.08112 9.66312 5.08112 9.99788C5.08112 10.3326 5.2141 10.6537 5.4508 10.8904C5.68751 11.1271 6.00855 11.2601 6.34331 11.2601H7.47086C7.49702 11.2603 7.52295 11.2552 7.54713 11.2452C7.57131 11.2352 7.59325 11.2205 7.61165 11.2019C7.63005 11.1833 7.64455 11.1612 7.65428 11.1369C7.66402 11.1127 7.66879 11.0867 7.66833 11.0605ZM16.2834 11.8925C16.2834 13.0042 14.8465 13.5379 14.0863 12.2468C14.0318 12.1535 12.8338 10.0904 12.8338 10.0904V11.8925C12.8338 13.0042 11.3976 13.5379 10.6374 12.2468C10.5821 12.1535 9.38486 10.0904 9.38486 10.0904V11.7897C9.38486 12.5609 8.92707 12.9787 8.21105 12.9787H6.3364C5.5464 12.9787 4.78875 12.6648 4.23013 12.1062C3.67152 11.5476 3.35769 10.79 3.35769 9.99995C3.35769 9.20994 3.67152 8.4523 4.23013 7.89368C4.78875 7.33506 5.5464 7.02123 6.3364 7.02123H7.30307V7.73657H6.3364C6.03917 7.73657 5.74485 7.79511 5.47024 7.90886C5.19564 8.0226 4.94613 8.18932 4.73595 8.3995C4.52578 8.60967 4.35906 8.85918 4.24531 9.13379C4.13157 9.4084 4.07302 9.70272 4.07302 9.99995C4.07302 10.2972 4.13157 10.5915 4.24531 10.8661C4.35906 11.1407 4.52578 11.3902 4.73595 11.6004C4.94613 11.8106 5.19564 11.9773 5.47024 12.091C5.74485 12.2048 6.03917 12.2633 6.3364 12.2633H8.19448C8.31921 12.2609 8.43816 12.2103 8.52644 12.1221C8.61472 12.034 8.66549 11.9151 8.66814 11.7904V8.12738C8.66637 8.09469 8.67571 8.06237 8.69464 8.03567C8.71357 8.00897 8.74098 7.98945 8.7724 7.98031C8.84836 7.95959 8.92845 8.00654 8.98714 8.10597L10.1465 10.1035C10.8204 11.2656 11.263 12.0286 11.2685 12.0369C11.4197 12.2923 11.6448 12.3372 11.8057 12.293C11.8976 12.2673 11.9783 12.2116 12.0351 12.1348C12.0919 12.058 12.1215 11.9645 12.1191 11.8691V8.12807C12.1173 8.09547 12.1264 8.06319 12.145 8.03639C12.1637 8.0096 12.1908 7.98984 12.222 7.98031C12.2973 7.95959 12.3767 8.00654 12.4347 8.10597L14.7167 12.0389C14.8348 12.2392 14.9991 12.3103 15.142 12.3103C15.1796 12.3103 15.217 12.3052 15.2532 12.2951C15.3463 12.27 15.4284 12.2144 15.4861 12.1372C15.5438 12.0599 15.5739 11.9655 15.5715 11.8691V7.02123H16.2855L16.2834 11.8925Z" fill="#CC0000"/>
</g>
</svg>
