<svg width="26" height="26" viewBox="0 0 26 26" fill="none" xmlns="http://www.w3.org/2000/svg">
<path d="M25.0345 6.6137e-08C24.8905 -5.43414e-05 24.7484 0.0334607 24.6196 0.0979337L17.5934 3.61718L9.64834 0.0803056C9.63536 0.074756 9.62052 0.0737767 9.60662 0.0682271C9.57087 0.0548429 9.53431 0.0436893 9.4972 0.0348209C9.46031 0.0248643 9.42283 0.017084 9.38501 0.0115889C9.30972 0.00538641 9.23404 0.00538641 9.15879 0.0115889C9.12098 0.017084 9.0835 0.0248643 9.04661 0.0348209C9.0095 0.0436893 8.97294 0.0548429 8.93719 0.0682271C8.92329 0.0737767 8.90845 0.0747016 8.89547 0.0803056L0.550772 3.79455C0.215789 3.94351 -5.43172e-05 4.27616 1.02532e-08 4.6432V25.0714C0.000162993 25.3856 0.158854 25.6784 0.421853 25.8496C0.684906 26.0211 1.01668 26.0476 1.30359 25.9201L9.27185 22.373L17.2401 25.9201C17.254 25.9257 17.2689 25.9201 17.2828 25.9285C17.5072 26.0291 17.7649 26.0233 17.9846 25.9127C17.9994 25.9063 18.0161 25.9127 18.031 25.9025L25.4484 22.1883C25.7628 22.031 25.9614 21.7092 25.9612 21.3572V0.929009C25.9615 0.416164 25.5466 0.000217696 25.0345 6.6137e-08ZM8.3447 20.7537L1.85436 23.6424V5.24679L8.3447 2.35802V20.7537ZM16.6894 23.6424L10.1991 20.7537V2.35802L16.6894 5.24674V23.6424ZM24.1069 20.7834L18.5438 23.569V5.21703L24.1069 2.43136V20.7834Z" fill="#868889"/>
</svg>
