<svg width="25" height="25" viewBox="0 0 25 25" fill="none" xmlns="http://www.w3.org/2000/svg">
<path d="M12.4816 0C5.59916 0 0 5.60742 0 12.5C0 19.3926 5.59916 25 12.4816 25C19.364 25 24.9632 19.3926 24.9632 12.5C24.9632 5.60742 19.364 0 12.4816 0ZM11.7503 6.13556C10.6376 6.08769 9.53623 5.93109 8.48454 5.67646C8.65252 5.27783 8.83479 4.89502 9.03133 4.53224C9.83772 3.04413 10.8277 1.99986 11.7503 1.62163V6.13556ZM11.7503 7.60155V11.7676H7.18222C7.24659 10.1416 7.52332 8.52738 7.98098 7.0591C9.19379 7.36504 10.467 7.55024 11.7503 7.60155ZM11.7503 13.2324V17.3985C10.467 17.4498 9.19379 17.635 7.98098 17.9409C7.52332 16.4726 7.24659 14.8584 7.18222 13.2324H11.7503ZM11.7503 18.8644V23.3784C10.8277 23.0002 9.83772 21.9559 9.03133 20.4678C8.83479 20.105 8.65252 19.7222 8.48454 19.3235C9.53623 19.0689 10.6374 18.9123 11.7503 18.8644ZM13.2129 18.8644C14.3256 18.9123 15.427 19.0689 16.4787 19.3235C16.3107 19.7222 16.1284 20.105 15.9319 20.4678C15.1255 21.9559 14.1355 23.0002 13.2129 23.3784V18.8644ZM13.2129 17.3985V13.2324H17.781C17.7166 14.8584 17.4399 16.4726 16.9822 17.9409C15.7694 17.635 14.4962 17.4498 13.2129 17.3985ZM13.2129 11.7676V7.60155C14.4962 7.55024 15.7694 7.36504 16.9822 7.0591C17.4399 8.52738 17.7166 10.1416 17.781 11.7676H13.2129ZM13.2129 6.13556V1.62163C14.1355 1.99986 15.1255 3.04413 15.9319 4.53224C16.1284 4.89502 16.3107 5.27783 16.4787 5.67646C15.427 5.93109 14.3256 6.08769 13.2129 6.13556ZM17.2174 3.83358C16.8512 3.15762 16.4533 2.56176 16.034 2.05345C17.4963 2.55356 18.8209 3.35369 19.9348 4.37985C19.2995 4.72069 18.6148 5.01671 17.8945 5.26409C17.6901 4.76704 17.4643 4.28887 17.2174 3.83358ZM7.74577 3.83358C7.49894 4.28887 7.27306 4.76704 7.0687 5.26409C6.34841 5.01671 5.66373 4.7205 5.02837 4.37985C6.14234 3.35369 7.46694 2.55356 8.92925 2.05345C8.50987 2.56176 8.1122 3.15743 7.74577 3.83358ZM6.57391 6.64082C6.07473 8.24013 5.78123 9.98364 5.718 11.7676H1.48764C1.64419 9.38702 2.55704 7.20997 3.98849 5.47695C4.78287 5.93319 5.65287 6.32343 6.57391 6.64082ZM5.718 13.2324C5.78123 15.0166 6.07473 16.7599 6.57391 18.3592C5.65287 18.6766 4.78287 19.0668 3.98849 19.5231C2.55704 17.79 1.64419 15.613 1.48764 13.2324H5.718ZM7.0687 19.7359C7.27306 20.233 7.49894 20.7111 7.74577 21.1664C8.1122 21.8424 8.50987 22.4382 8.92925 22.9466C7.46694 22.4464 6.14234 21.6463 5.02856 20.6202C5.66353 20.2795 6.34841 19.9833 7.0687 19.7359ZM17.2174 21.1664C17.4643 20.7111 17.6901 20.233 17.8945 19.7359C18.6148 19.9833 19.2995 20.2795 19.9348 20.6202C18.8209 21.6463 17.4963 22.4464 16.034 22.9466C16.4533 22.4382 16.851 21.8426 17.2174 21.1664ZM18.3893 18.3592C18.8885 16.7599 19.182 15.0164 19.2452 13.2324H23.4756C23.319 15.613 22.4062 17.79 20.9747 19.5231C20.1803 19.0668 19.3103 18.6766 18.3893 18.3592ZM19.2452 11.7676C19.182 9.98345 18.8885 8.24013 18.3893 6.64082C19.3103 6.32343 20.1803 5.93319 20.9747 5.47695C22.4062 7.20997 23.319 9.38702 23.4756 11.7676H19.2452Z" fill="#868889"/>
</svg>
