<svg width="14" height="14" viewBox="0 0 14 14" fill="none" xmlns="http://www.w3.org/2000/svg">
<g clip-path="url(#clip0_0_45)">
<path d="M6.99984 12.8334C3.77809 12.8334 1.1665 10.2218 1.1665 7.00002C1.1665 3.77827 3.77809 1.16669 6.99984 1.16669C10.2216 1.16669 12.8332 3.77827 12.8332 7.00002C12.8332 10.2218 10.2216 12.8334 6.99984 12.8334ZM6.99984 11.6667C8.23751 11.6667 9.4245 11.175 10.2997 10.2999C11.1748 9.42468 11.6665 8.2377 11.6665 7.00002C11.6665 5.76234 11.1748 4.57536 10.2997 3.70019C9.4245 2.82502 8.23751 2.33335 6.99984 2.33335C5.76216 2.33335 4.57518 2.82502 3.70001 3.70019C2.82484 4.57536 2.33317 5.76234 2.33317 7.00002C2.33317 8.2377 2.82484 9.42468 3.70001 10.2999C4.57518 11.175 5.76216 11.6667 6.99984 11.6667ZM7.58317 7.00002H9.9165V8.16669H6.4165V4.08335H7.58317V7.00002Z" fill="#4E4B66"/>
</g>
<defs>
<clipPath id="clip0_0_45">
<rect width="14" height="14" fill="white"/>
</clipPath>
</defs>
</svg>
