<svg width="25" height="26" viewBox="0 0 25 26" fill="none" xmlns="http://www.w3.org/2000/svg">
<path d="M25 13.0577C25 12.0074 24.9149 11.2409 24.7308 10.4461H12.7552V15.1866H19.7846C19.6429 16.3647 18.8776 18.1388 17.1769 19.331L17.153 19.4897L20.9395 22.4274L21.2018 22.4536C23.6111 20.2252 25 16.9466 25 13.0577Z" fill="#4285F4"/>
<path d="M12.7551 25.5477C16.1989 25.5477 19.09 24.4122 21.2017 22.4536L17.1768 19.331C16.0997 20.0832 14.6541 20.6084 12.7551 20.6084C9.38206 20.6084 6.51928 18.3801 5.49877 15.3002L5.34919 15.3129L1.41197 18.3645L1.36048 18.5078C3.45796 22.6806 7.76635 25.5477 12.7551 25.5477Z" fill="#34A853"/>
<path d="M5.4988 15.3002C5.22953 14.5054 5.0737 13.6538 5.0737 12.7738C5.0737 11.8938 5.22953 11.0422 5.48463 10.2474L5.4775 10.0781L1.49094 6.97758L1.36051 7.03972C0.496036 8.77131 0 10.7158 0 12.7738C0 14.8318 0.496036 16.7762 1.36051 18.5078L5.4988 15.3002Z" fill="#FBBC05"/>
<path d="M12.7555 4.9392C15.1506 4.9392 16.7662 5.9753 17.6875 6.84114L21.2872 3.32121C19.0764 1.2632 16.1994 0 12.7555 0C7.76685 0 3.45846 2.867 1.36098 7.03977L5.48511 10.2475C6.51978 7.16756 9.38256 4.9392 12.7555 4.9392Z" fill="#EB4335"/>
</svg>
