<svg width="37" height="36" viewBox="0 0 37 36" fill="none" xmlns="http://www.w3.org/2000/svg">
<path d="M0.454843 13.3059C0.454843 12.7752 0.833671 12.5043 1.5915 12.491L9.34012 12.3775L12.9586 19.0094C13.1346 19.4398 13.2239 19.7361 13.2239 19.9C13.2239 20.0517 13.1311 20.201 12.9485 20.3461C12.7657 20.4909 12.5852 20.5634 12.409 20.5634C12.3834 20.5634 12.2577 20.5008 12.0302 20.3738L11.0448 19.8243L8.92319 23.1973H18.1495V32.6338H9.52935C7.93785 32.6338 6.67419 31.8325 5.74036 30.2276L0.454664 21.1889C0.151495 20.6584 0 20.0273 0 19.294C0 18.7254 0.125739 18.2328 0.378827 17.8159L2.15975 14.8978L0.814532 14.0831C0.573786 13.9446 0.454664 13.6849 0.454664 13.3061L0.454843 13.3059ZM1.34521 13.6661L2.97464 14.6324L0.890548 18.2326C0.701135 18.5492 0.606517 18.9404 0.606517 19.4074C0.606517 19.8758 0.751216 20.3493 1.04204 20.8286L5.70262 28.8631V28.4839C5.70262 27.5366 5.86646 26.7976 6.19503 26.2673L10.7799 19.0094L12.1441 19.6727C12.27 19.7998 12.358 19.8622 12.409 19.8622C12.485 19.8376 12.5229 19.7998 12.5229 19.7485C12.5229 19.7361 12.4471 19.5847 12.2956 19.2938L9.03677 13.0024L1.34539 13.0782C1.2184 13.0782 1.15598 13.1542 1.15598 13.3056C1.15598 13.4571 1.2184 13.5776 1.34539 13.6658L1.34521 13.6661ZM28.6642 5.23357L29.8767 4.57035C30.1041 4.44426 30.2803 4.38094 30.4072 4.38094C30.6346 4.38094 30.8621 4.47341 31.0892 4.65621C31.3166 4.839 31.4301 5.04398 31.4301 5.27131C31.4301 5.39848 31.3479 5.65711 31.184 6.04846L26.9973 12.7187L19.5137 12.0745C18.7557 11.9986 18.3769 11.7903 18.3769 11.4492C18.3769 11.1594 18.5098 10.951 18.7748 10.8237L19.8169 10.1229L17.9982 6.37077L13.2618 14.1591L5.22882 9.30802L9.73772 1.89925C10.5458 0.572813 11.695 -0.0582083 13.186 0.00421418L24.1739 0.459057C25.0321 0.497155 25.6762 0.643105 26.1065 0.894941C26.4977 1.13569 26.8452 1.55798 27.1484 2.1645L28.6639 5.23428L28.6642 5.23357ZM13.0345 13.3059L17.6949 5.70773L16.2552 2.82753C15.5596 1.43868 14.4362 0.743088 12.8828 0.743088C11.7327 0.743088 10.7731 1.37518 10.0032 2.63794L6.04371 9.11879L13.0345 13.3065V13.3059ZM9.85166 32.1224H17.4863V23.8984H8.44939L6.74431 26.6271C6.46582 27.0694 6.32774 27.7395 6.32774 28.6357C6.32774 30.9607 7.50214 32.1221 9.85148 32.1221L9.85166 32.1224ZM19.6652 11.5627L26.656 12.1122C29.4221 7.7539 30.805 5.499 30.805 5.34733C30.805 5.14557 30.697 5.04416 30.4829 5.04416C30.3312 5.04416 30.2178 5.05757 30.1422 5.08207L28.3988 5.97262L26.5802 2.37233C26.15 1.53866 25.3868 1.09741 24.2879 1.0459L15.156 0.647934C15.8247 1.00244 16.3431 1.56424 16.7095 2.33459L20.5933 10.3502L19.2862 11.1269C19.1469 11.2027 19.0777 11.273 19.0777 11.3352C19.0777 11.361 19.2726 11.4368 19.665 11.5629L19.6652 11.5627ZM24.5907 22.8943H28.6641L23.8143 15.1253L31.7711 10.1231L36.3177 17.3802C36.7727 18.126 37.0001 18.8526 37.0001 19.5594C37.0001 20.0143 36.7158 20.7911 36.1474 21.8903L31.1837 31.4785C30.6153 32.5909 29.7374 33.1461 28.5501 33.1461H25.1403V34.6998C25.1403 35.2684 24.8561 35.5526 24.2877 35.5526C24.0226 35.5526 23.7384 35.3196 23.4351 34.8515L19.1156 28.3329L22.9235 21.7764C23.1888 21.3094 23.5107 21.0755 23.8897 21.0755C24.3569 21.0755 24.5907 21.2525 24.5907 21.606V22.8945V22.8943ZM24.5529 32.444H28.6641C29.5099 32.444 30.1853 31.9652 30.6913 31.004L35.0676 22.7043C34.2084 23.2484 33.3935 23.5194 32.6237 23.5194H23.9278V21.8898C23.9278 21.7514 23.8899 21.6813 23.8143 21.6813C23.7506 21.7446 23.6493 21.8515 23.5109 22.0034L19.8925 28.2943L24.1741 34.7751C24.2119 34.8508 24.2623 34.8885 24.3256 34.8885C24.4773 34.8885 24.5529 34.7939 24.5529 34.6043V32.444ZM29.3652 22.8943H32.6237C33.4193 22.8943 34.1962 22.6165 34.9537 22.0604C35.8634 21.404 36.3179 20.5825 36.3179 19.5972C36.3179 18.9527 36.0841 18.2516 35.6171 17.4938L31.5818 10.9374L24.629 15.2956L29.3652 22.8939" fill="white"/>
</svg>
