<svg width="18" height="24" viewBox="0 0 18 24" fill="none" xmlns="http://www.w3.org/2000/svg">
<path d="M15.7268 24H2.24669C1.00852 24 0 22.9911 0 21.75V11.25C0 10.0089 1.00852 9 2.24669 9H15.7268C16.965 9 17.9735 10.0089 17.9735 11.25V21.75C17.9735 22.9911 16.965 24 15.7268 24ZM2.24669 10.5C1.83421 10.5 1.49779 10.836 1.49779 11.25V21.75C1.49779 22.164 1.83421 22.5 2.24669 22.5H15.7268C16.1393 22.5 16.4757 22.164 16.4757 21.75V11.25C16.4757 10.836 16.1393 10.5 15.7268 10.5H2.24669Z" fill="#868889"/>
<path d="M14.229 10.5C13.8156 10.5 13.4801 10.164 13.4801 9.75V6C13.4801 3.51892 11.4641 1.5 8.98672 1.5C6.50929 1.5 4.49334 3.51892 4.49334 6V9.75C4.49334 10.164 4.15784 10.5 3.74445 10.5C3.33105 10.5 2.99555 10.164 2.99555 9.75V6C2.99555 2.69092 5.68251 0 8.98672 0C12.2909 0 14.9779 2.69092 14.9779 6V9.75C14.9779 10.164 14.6424 10.5 14.229 10.5Z" fill="#868889"/>
</svg>
