<svg width="17" height="17" viewBox="0 0 17 17" fill="none" xmlns="http://www.w3.org/2000/svg">
<path d="M8.49998 16.9423C13.1944 16.9423 17 13.1497 17 8.47117C17 3.79267 13.1944 0 8.49998 0C3.80557 0 0 3.79267 0 8.47117C0 13.1497 3.80557 16.9423 8.49998 16.9423Z" fill="#00AED6"/>
<path fill-rule="evenodd" clip-rule="evenodd" d="M13.4583 8.22394C13.3874 7.16505 12.4666 6.31793 11.4041 6.38852H6.02078C5.80829 6.38852 5.66662 6.24734 5.66662 6.03587C5.66662 5.82409 5.80829 5.68291 6.02078 5.68291H11.4749C11.4394 4.97698 10.9083 4.23559 10.2352 4.12986C8.64161 3.84749 7.01245 3.84749 5.45412 4.12986C4.56855 4.27104 3.89579 5.1533 3.75412 6.00042C3.50621 7.66199 3.50621 9.35096 3.75412 11.0125C3.93136 11.9657 4.71021 12.7419 5.70219 12.8831C7.68552 13.1303 9.66885 13.1303 11.6166 12.8831C12.5022 12.7774 13.0688 11.9657 13.2458 11.1186C13.423 10.1303 13.4935 9.17711 13.4583 8.22394ZM11.6874 9.38889V9.7064C11.6874 9.91818 11.5458 10.0594 11.3333 10.0594C11.1208 10.0594 10.9791 9.91818 10.9791 9.70671V9.38889C10.873 9.28284 10.8019 9.14165 10.8019 9.00047C10.8019 8.71809 11.0499 8.47118 11.3333 8.47118C11.6166 8.47118 11.8647 8.71841 11.8647 9.00078C11.8647 9.14197 11.7935 9.28315 11.6874 9.38889Z" fill="white"/>
</svg>
