<svg width="7" height="6" viewBox="0 0 7 6" fill="none" xmlns="http://www.w3.org/2000/svg">
<path d="M6.69998 0.139259C6.62265 0.0830093 6.53498 0.0425474 6.442 0.0201845C6.34902 -0.00217838 6.25255 -0.00600423 6.15809 0.00892565C6.06363 0.0238555 5.97304 0.0572485 5.89149 0.107197C5.80994 0.157146 5.73903 0.222672 5.68281 0.300031L2.84259 4.2023L1.05044 2.92941C0.906705 2.82718 0.728247 2.78623 0.554325 2.81558C0.380403 2.84493 0.225263 2.94217 0.123033 3.0859C0.0208043 3.22963 -0.0201397 3.40809 0.00920877 3.58201C0.0385572 3.75594 0.135794 3.91108 0.279528 4.01331L2.68181 5.71944C2.7558 5.77195 2.83982 5.80863 2.92864 5.82719C3.01745 5.84574 3.10914 5.84577 3.19796 5.82726C3.29261 5.8125 3.38342 5.7792 3.46517 5.72927C3.54693 5.67934 3.61802 5.61376 3.67438 5.5363L6.86086 1.15699C6.97443 1.00061 7.02127 0.805538 6.99108 0.61464C6.9609 0.423742 6.85616 0.252637 6.69988 0.138925" fill="#D6F0CB"/>
</svg>
