<svg width="24" height="16" viewBox="0 0 24 16" fill="none" xmlns="http://www.w3.org/2000/svg">
<path d="M0.400192 7.08664L0.401422 7.08542L7.53014 0.375737C8.0642 -0.126909 8.928 -0.125038 9.4596 0.380123C9.99113 0.885221 9.98908 1.70219 9.45503 2.2049L4.6688 6.70968L22.5246 6.70968C23.2781 6.70968 23.8889 7.28736 23.8889 8C23.8889 8.71265 23.2781 9.29032 22.5246 9.29032L4.66887 9.29032L9.45496 13.7951C9.98901 14.2978 9.99106 15.1148 9.45953 15.6199C8.92793 16.1251 8.06406 16.1268 7.53007 15.6243L0.401351 8.91458L0.400125 8.91335C-0.134202 8.40897 -0.132498 7.58935 0.400192 7.08664Z" fill="black"/>
<path d="M0.400192 7.08664L0.401422 7.08542L7.53014 0.375737C8.0642 -0.126909 8.928 -0.125038 9.4596 0.380123C9.99113 0.885221 9.98908 1.70219 9.45503 2.2049L4.6688 6.70968L22.5246 6.70968C23.2781 6.70968 23.8889 7.28736 23.8889 8C23.8889 8.71265 23.2781 9.29032 22.5246 9.29032L4.66887 9.29032L9.45496 13.7951C9.98901 14.2978 9.99106 15.1148 9.45953 15.6199C8.92793 16.1251 8.06406 16.1268 7.53007 15.6243L0.401351 8.91458L0.400125 8.91335C-0.134202 8.40897 -0.132498 7.58935 0.400192 7.08664Z" fill="black"/>
</svg>
