<svg width="28" height="28" viewBox="0 0 28 28" fill="none" xmlns="http://www.w3.org/2000/svg">
<path d="M15.6425 20.3664V19.4203C17.6224 19.4203 19 17.8788 19 16.1434C19 14.3364 17.52 12.8664 15.7008 12.8664H13.2993C12.74 12.8664 12.2852 12.4134 12.2852 11.8564C12.2852 11.3188 12.7116 10.8464 13.3152 10.8464H15.6145C16.018 10.8504 16.4173 11.0308 16.7104 11.3417C17.1414 11.7989 17.8644 11.8228 18.3253 11.3951C18.7861 10.9675 18.8102 10.2503 18.3791 9.79312C17.6625 9.03311 16.6658 8.59174 15.6425 8.58003V7.63345C15.6425 7.00748 15.131 6.5 14.5 6.5C13.869 6.5 13.3575 7.00748 13.3575 7.63345V8.57958C11.3776 8.57958 10 10.1211 10 11.8565C10 13.6634 11.48 15.1334 13.2992 15.1334H15.7007C16.26 15.1334 16.7148 15.5865 16.7148 16.1435C16.7148 16.7042 16.2587 17.1535 15.7009 17.1535C15.6956 17.1535 15.6901 17.1534 15.6847 17.1534H13.1759C12.8912 17.1506 12.5885 17.0482 12.3229 16.8652C11.8047 16.5079 11.0927 16.6351 10.7327 17.1491C10.3725 17.6631 10.5007 18.3693 11.0188 18.7267C11.8011 19.266 12.5292 19.4204 13.3574 19.4204V20.3666C13.3574 20.9925 13.8689 21.5 14.4999 21.5C15.131 21.4998 15.6425 20.9924 15.6425 20.3664Z" fill="#28B446"/>
<path d="M14 0.25C21.5815 0.25 27.75 6.41845 27.75 14C27.75 21.5816 21.5815 27.75 14 27.75C6.41846 27.75 0.25 21.5816 0.25 14C0.25 6.41845 6.41846 0.25 14 0.25ZM14 2.44656C7.6316 2.44656 2.45109 7.62928 2.45109 14C2.45109 20.3707 7.6316 25.5534 14 25.5534C20.3684 25.5534 25.5489 20.3707 25.5489 14C25.5489 7.62928 20.3684 2.44656 14 2.44656Z" fill="#28B446" stroke="#F2F3F7" stroke-width="0.5"/>
</svg>
