<svg width="21" height="21" viewBox="0 0 21 21" fill="none" xmlns="http://www.w3.org/2000/svg">
<path d="M20.3153 10.7284H7.07605C6.69804 10.7284 6.39126 10.4216 6.39126 10.0436C6.39126 9.66558 6.69804 9.3588 7.07605 9.3588H20.3153C20.6933 9.3588 21.0001 9.66558 21.0001 10.0436C21.0001 10.4216 20.6933 10.7284 20.3153 10.7284Z" fill="#EF574B"/>
<path d="M10.7282 14.3804C10.5529 14.3804 10.3777 14.3139 10.2443 14.1796L6.59213 10.5275C6.32463 10.2599 6.32463 9.82618 6.59213 9.55869L10.2443 5.90656C10.5117 5.63907 10.9454 5.63907 11.2131 5.90656C11.4806 6.17406 11.4806 6.60773 11.2131 6.87523L8.04478 10.0435L11.2131 13.2118C11.4806 13.4793 11.4806 13.913 11.2131 14.1805C11.0788 14.3139 10.9035 14.3804 10.7282 14.3804Z" fill="#EF574B"/>
<path d="M10.0436 20.0871C4.50593 20.0871 0 15.5812 0 10.0436C0 4.50593 4.50593 0 10.0436 0C14.1987 0 17.8674 2.4999 19.3913 6.36953C19.5301 6.72095 19.3565 7.11818 19.0051 7.25777C18.6535 7.39486 18.2563 7.224 18.1167 6.87074C16.8009 3.52891 13.6318 1.36957 10.0436 1.36957C5.26093 1.36957 1.36957 5.2611 1.36957 10.0436C1.36957 14.826 5.26093 18.7175 10.0436 18.7175C13.6318 18.7175 16.8009 16.5582 18.1167 13.2174C18.2554 12.8639 18.6527 12.6932 19.0051 12.8302C19.3565 12.9689 19.5301 13.367 19.3913 13.7186C17.8674 17.5872 14.1987 20.0871 10.0436 20.0871Z" fill="#EF574B"/>
</svg>
