<svg width="42" height="12" viewBox="0 0 42 12" fill="none" xmlns="http://www.w3.org/2000/svg">
<g clip-path="url(#clip0_1103_5212)">
<path d="M0.0444503 8.2476C0.0444503 7.65165 0.0328439 7.15168 0 6.70562H1.15176L1.20584 7.47129H1.23794C1.49847 7.06657 1.9768 6.58788 2.86729 6.58788C3.56245 6.58788 4.10523 6.97229 4.33317 7.54576H4.35539C4.54085 7.2583 4.75767 7.04651 5.00684 6.8971C5.29996 6.69522 5.63704 6.58788 6.07216 6.58788C6.9508 6.58788 7.84054 7.17295 7.84054 8.83268V11.8835H6.53766V9.02319C6.53766 8.16226 6.23391 7.65165 5.59407 7.65165C5.13698 7.65165 4.79965 7.97102 4.65938 8.34334C4.62679 8.47075 4.59394 8.63008 4.59394 8.77828V11.8835H3.29031V8.88514C3.29031 8.16226 2.99743 7.65165 2.37859 7.65165C1.87877 7.65165 1.54267 8.03437 1.42315 8.39532C1.36907 8.52394 1.3461 8.67239 1.3461 8.82132V11.8835H0.0444503V8.2476Z" fill="#003A70"/>
<path d="M11.6144 9.35361C10.6693 9.33185 9.76847 9.53324 9.76847 10.3207C9.76847 10.8303 10.1053 11.0651 10.5288 11.0651C11.06 11.0651 11.4519 10.7249 11.5702 10.3528C11.603 10.2573 11.6144 10.1505 11.6144 10.0659V9.35361ZM12.9173 10.6398C12.9173 11.1074 12.9393 11.5629 12.9941 11.8835H11.7882L11.7016 11.309H11.6677C11.3425 11.7132 10.7889 12 10.1053 12C9.04047 12 8.4436 11.2466 8.4436 10.4582C8.4436 9.15052 9.62648 8.49195 11.5815 8.50235V8.41725C11.5815 8.07684 11.44 7.51328 10.5071 7.51328C9.98529 7.51328 9.44151 7.67357 9.08394 7.89672L8.82291 7.04643C9.21383 6.81168 9.89861 6.5878 10.7348 6.5878C12.4291 6.5878 12.9173 7.64142 12.9173 8.76805V10.6398Z" fill="#003A70"/>
<path d="M13.8414 8.2476C13.8414 7.65165 13.8293 7.15168 13.7977 6.70562H14.9695L15.0349 7.48169H15.067C15.295 7.07842 15.8713 6.58788 16.7502 6.58788C17.6743 6.58788 18.6297 7.17295 18.6297 8.81044V11.8835H17.2935V8.95985C17.2935 8.21545 17.011 7.65165 16.2837 7.65165C15.7516 7.65165 15.3831 8.02324 15.2411 8.41708C15.1987 8.53458 15.187 8.69439 15.187 8.84162V11.8835H13.8414V8.2476Z" fill="#003A70"/>
<path d="M23.0849 8.86338C23.0849 8.75773 23.0738 8.63008 23.0525 8.5237C22.9328 8.01333 22.5098 7.59894 21.9013 7.59894C21.0434 7.59894 20.5658 8.34358 20.5658 9.31089C20.5658 10.2572 21.0434 10.9491 21.8909 10.9491C22.4332 10.9491 22.9115 10.5872 23.0414 10.0236C23.0738 9.90636 23.0849 9.77774 23.0849 9.63969V8.86338ZM24.4204 4.62521V10.4266C24.4204 10.958 24.4426 11.5327 24.4638 11.883H23.2694L23.216 11.0651H23.1938C22.8789 11.6384 22.2366 12.0001 21.4667 12.0001C20.2072 12.0001 19.2078 10.9491 19.2078 9.35368C19.1972 7.61998 20.3053 6.58788 21.5758 6.58788C22.3028 6.58788 22.8246 6.88597 23.0632 7.27014H23.0849V4.62521H24.4204Z" fill="#003A70"/>
<path d="M25.3647 6.70554H26.7133V11.883H25.3647V6.70554Z" fill="#003A70"/>
<path d="M27.6565 8.37512C27.6565 7.67351 27.6456 7.17305 27.6128 6.70596H28.7752L28.8181 7.69382H28.8623C29.1226 6.9603 29.742 6.70596 30.3067 6.70596C30.4369 6.70596 30.5129 6.68396 30.6216 6.70596V7.85459C30.5129 7.83283 30.3937 7.81156 30.2299 7.81156C29.5898 7.81156 29.1555 8.21531 29.0364 8.7999C29.0147 8.91667 28.9932 9.05593 28.9932 9.20534V11.8831H27.6565V8.37512Z" fill="#003A70"/>
<path d="M31.2406 6.70554H32.5865V11.883H31.2406V6.70554Z" fill="#003A70"/>
<path fill-rule="evenodd" clip-rule="evenodd" d="M40.8962 1.236C40.2317 0.494988 39.5264 0.829594 38.9634 1.10279C38.7276 1.2169 37.8714 1.7749 37.0229 2.1639C36.4184 2.44121 35.5506 2.35732 35.0747 1.78191C35.0458 1.7471 34.2766 0.83467 34.1951 0.722249C33.6955 0.108887 32.4319 -0.399789 30.9221 0.446152C30.1131 0.904541 28.2067 1.97557 27.494 2.374C27.0608 2.59038 26.0553 2.68491 25.4873 1.93374C25.4779 1.92141 24.7316 1.00971 24.7018 0.974653C24.6798 0.949993 24.1977 0.250079 23.1233 0.228561C22.9652 0.224693 22.176 0.2201 21.4048 0.648752C20.3822 1.2215 18.0021 2.55363 18.0021 2.55363C18.0004 2.55363 18.0004 2.55484 18.0004 2.55484C17.022 3.10317 16.2589 3.52892 16.2589 3.52892L17.1598 4.613C17.5816 5.12482 18.5313 5.52156 19.3556 5.05833C19.3556 5.05833 22.4005 3.33212 22.4111 3.32728C23.7283 2.61963 24.7447 2.61963 25.4181 2.88316C26.0239 3.1329 26.5504 3.75666 26.5504 3.75666C26.5504 3.75666 27.2391 4.59221 27.3601 4.73823C27.7518 5.21016 28.3995 5.02497 28.3995 5.02497C28.3995 5.02497 28.6388 4.99789 29.0023 4.78755C29.0023 4.78755 31.9509 3.1138 31.9526 3.11332C32.8895 2.57539 33.7489 2.47506 34.1872 2.51422C35.562 2.6368 35.9894 3.57703 36.586 4.2327C36.937 4.61928 37.2533 4.83784 37.7376 4.82672C38.0564 4.81971 38.4157 4.63137 38.4688 4.59752L42.0001 2.60174C42.0001 2.60174 41.6383 2.06792 40.8962 1.236Z" fill="#FFB700"/>
</g>
<defs>
<clipPath id="clip0_1103_5212">
<rect width="42" height="12" fill="white"/>
</clipPath>
</defs>
</svg>
