<svg width="24" height="12" viewBox="0 0 24 12" fill="none" xmlns="http://www.w3.org/2000/svg">
<path d="M19.6932 2.67638C20.4403 1.74408 20.7923 1.00957 20.7923 1.00957L19.6932 2.67638ZM19.6932 2.67638C18.9827 3.56327 17.9148 4.62924 16.4527 5.41212M19.6932 2.67638L16.4527 5.41212M19.6932 2.67638L22.9903 4.31149M12.0001 6.51276C10.2329 6.51276 8.75567 6.05908 7.54757 5.41212M12.0001 6.51276L7.54757 5.41212M12.0001 6.51276C13.7673 6.51276 15.2445 6.05908 16.4527 5.41212M12.0001 6.51276L16.4527 5.41212M12.0001 6.51276V10.365M7.54757 5.41212L4.30699 8.71404M7.54757 5.41212C6.16346 4.67095 5.13262 3.6762 4.4238 2.8199M7.54757 5.41212L4.4238 2.8199M16.4527 5.41212L19.1437 8.71404M4.4238 2.8199C3.59667 1.82054 3.20798 1.00957 3.20798 1.00957L4.4238 2.8199ZM4.4238 2.8199L1.00994 4.31149" stroke="#3F414E" stroke-width="2" stroke-linecap="round" stroke-linejoin="round"/>
</svg>
