<svg width="25" height="25" viewBox="0 0 25 25" fill="none" xmlns="http://www.w3.org/2000/svg">
<path d="M21.3074 3.66116C18.95 1.30024 15.8155 0 12.4816 0C9.14751 0 6.01321 1.30024 3.65577 3.66116C1.29833 6.02207 0 9.161 0 12.5C0 15.8388 1.29833 18.9779 3.65577 21.3388C6.01321 23.6998 9.14751 25 12.4816 25C15.8155 25 18.95 23.6998 21.3074 21.3388C23.6649 18.9779 24.9632 15.8388 24.9632 12.5C24.9632 9.161 23.6649 6.02207 21.3074 3.66116ZM6.25737 21.6009C6.77941 18.5907 9.38406 16.3704 12.4816 16.3704C15.5793 16.3704 18.1838 18.5907 18.7058 21.6009C16.9337 22.8203 14.7895 23.5352 12.4816 23.5352C10.1737 23.5352 8.02955 22.8203 6.25737 21.6009ZM8.51292 10.931C8.51292 8.73928 10.2933 6.95648 12.4816 6.95648C14.6699 6.95648 16.4503 8.73947 16.4503 10.931C16.4503 13.1226 14.6699 14.9056 12.4816 14.9056C10.2933 14.9056 8.51292 13.1226 8.51292 10.931ZM19.9727 20.5849C19.5791 19.1835 18.7973 17.9121 17.7014 16.9189C17.0291 16.3096 16.2638 15.8287 15.4411 15.4898C16.9281 14.5184 17.9132 12.8378 17.9132 10.931C17.9132 7.93171 15.4765 5.49164 12.4816 5.49164C9.48671 5.49164 7.05023 7.93171 7.05023 10.931C7.05023 12.8378 8.03526 14.5184 9.52214 15.4898C8.69956 15.8287 7.93413 16.3094 7.26183 16.9188C6.16614 17.9119 5.38414 19.1834 4.99047 20.5847C2.82215 18.568 1.46269 15.6902 1.46269 12.5C1.46269 6.41518 6.40573 1.46484 12.4816 1.46484C18.5575 1.46484 23.5005 6.41518 23.5005 12.5C23.5005 15.6904 22.1411 18.5682 19.9727 20.5849Z" fill="#969696"/>
</svg>
