<svg width="24" height="19" viewBox="0 0 24 19" fill="none" xmlns="http://www.w3.org/2000/svg">
<path d="M21.8906 0H2.10937C0.947718 0 0 0.948082 0 2.11248V16.1957C0 17.3562 0.943499 18.3082 2.10937 18.3082H21.8906C23.0493 18.3082 24 17.3633 24 16.1957V2.11248C24 0.952025 23.0565 0 21.8906 0ZM21.5993 1.40832L12.0447 10.9771L2.40745 1.40832H21.5993ZM1.40625 15.9041V2.39739L8.17869 9.12165L1.40625 15.9041ZM2.40061 16.8999L9.17732 10.1132L11.5519 12.4708C11.8267 12.7437 12.2703 12.7428 12.5441 12.4686L14.8594 10.1499L21.5994 16.8999H2.40061ZM22.5937 15.904L15.8537 9.15409L22.5937 2.4041V15.904Z" fill="#868889"/>
</svg>
