<svg width="15" height="20" viewBox="0 0 15 20" fill="none" xmlns="http://www.w3.org/2000/svg">
<path d="M7.24325 0C3.2493 0 0 3.2493 0 7.24321C0 12.1998 6.482 19.4763 6.75798 19.7837C7.0172 20.0724 7.46978 20.0719 7.72853 19.7837C8.0045 19.4763 14.4865 12.1998 14.4865 7.24321C14.4864 3.2493 11.2372 0 7.24325 0ZM7.24325 18.3488C5.06173 15.7575 1.30438 10.645 1.30438 7.24329C1.30438 3.96852 3.96852 1.30438 7.24325 1.30438C10.518 1.30438 13.1821 3.96852 13.1821 7.24325C13.1821 10.6451 9.42532 15.7567 7.24325 18.3488Z" fill="#28B446"/>
<path d="M7.2434 3.59894C5.23395 3.59894 3.59918 5.23374 3.59918 7.2432C3.59918 9.25266 5.23399 10.8875 7.2434 10.8875C9.25282 10.8875 10.8876 9.25266 10.8876 7.2432C10.8876 5.23374 9.25282 3.59894 7.2434 3.59894ZM7.2434 9.58309C5.95317 9.58309 4.90356 8.53344 4.90356 7.2432C4.90356 5.95296 5.9532 4.90331 7.2434 4.90331C8.5336 4.90331 9.58325 5.95296 9.58325 7.2432C9.58325 8.53344 8.5336 9.58309 7.2434 9.58309Z" fill="#28B446"/>
</svg>
