<svg width="20" height="23" viewBox="0 0 20 23" fill="none" xmlns="http://www.w3.org/2000/svg">
<path d="M10 16.7063C10.3542 16.7063 10.6513 16.5983 10.8913 16.3823C11.1304 16.167 11.25 15.9 11.25 15.5813V11.0813C11.25 10.7625 11.1304 10.4951 10.8913 10.2791C10.6513 10.0639 10.3542 9.95625 10 9.95625C9.64583 9.95625 9.34917 10.0639 9.11 10.2791C8.87 10.4951 8.75 10.7625 8.75 11.0813V15.5813C8.75 15.9 8.87 16.167 9.11 16.3823C9.34917 16.5983 9.64583 16.7063 10 16.7063ZM10 7.70625C10.3542 7.70625 10.6513 7.59825 10.8913 7.38225C11.1304 7.167 11.25 6.9 11.25 6.58125C11.25 6.2625 11.1304 5.99513 10.8913 5.77913C10.6513 5.56388 10.3542 5.45625 10 5.45625C9.64583 5.45625 9.34917 5.56388 9.11 5.77913C8.87 5.99513 8.75 6.2625 8.75 6.58125C8.75 6.9 8.87 7.167 9.11 7.38225C9.34917 7.59825 9.64583 7.70625 10 7.70625ZM10 22.2469H9.6875C9.58333 22.2469 9.48958 22.2281 9.40625 22.1906C6.67708 21.4219 4.42708 19.8983 2.65625 17.6198C0.885417 15.342 0 12.825 0 10.0688V4.75313C0 4.28438 0.15125 3.8625 0.45375 3.4875C0.755417 3.1125 1.14583 2.84063 1.625 2.67188L9.125 0.140625C9.41667 0.046875 9.70833 0 10 0C10.2917 0 10.5833 0.046875 10.875 0.140625L18.375 2.67188C18.8542 2.84063 19.245 3.1125 19.5475 3.4875C19.8492 3.8625 20 4.28438 20 4.75313V10.0688C20 12.825 19.1146 15.342 17.3438 17.6198C15.5729 19.8983 13.3229 21.4219 10.5938 22.1906C10.4896 22.2281 10.2917 22.2469 10 22.2469ZM10 19.9688C12.1667 19.35 13.9583 18.1125 15.375 16.2563C16.7917 14.4 17.5 12.3375 17.5 10.0688V4.75313L10 2.22188L2.5 4.75313V10.0688C2.5 12.3375 3.20833 14.4 4.625 16.2563C6.04167 18.1125 7.83333 19.35 10 19.9688Z" fill="#28B446"/>
</svg>
