<svg width="21" height="14" viewBox="0 0 21 14" fill="none" xmlns="http://www.w3.org/2000/svg">
<path d="M18.8122 0H2.18745C0.981734 0 0 0.981735 0 2.18749V11.8124C0 13.0181 0.981734 13.9998 2.18745 13.9998H18.8122C20.0179 13.9998 20.9996 13.0181 20.9996 11.8124V2.18749C20.9997 0.981735 20.0179 0 18.8122 0ZM20.1247 11.8123C20.1247 12.5359 19.5358 13.1248 18.8122 13.1248H2.18745C1.46382 13.1248 0.874972 12.5359 0.874972 11.8123V2.18749C0.874972 1.46387 1.46382 0.875013 2.18745 0.875013H18.8122C19.5358 0.875013 20.1247 1.46387 20.1247 2.18749V11.8123H20.1247Z" fill="#28B446"/>
<path d="M20.5624 2.6252H0.437763C0.196267 2.6252 0.000256316 2.82121 0.000256316 3.06271V5.68767C0.000256316 5.92916 0.196267 6.12517 0.437763 6.12517H20.5625C20.804 6.12517 21 5.92916 21 5.68767V3.06271C20.9999 2.82121 20.8039 2.6252 20.5624 2.6252ZM20.125 5.25016H0.875229V3.50017H20.1249V5.25016H20.125Z" fill="#28B446"/>
<path d="M8.31287 8.75019H3.06296C2.82146 8.75019 2.62545 8.9462 2.62545 9.1877C2.62545 9.4292 2.82146 9.62517 3.06296 9.62517H8.31287C8.55437 9.62517 8.75038 9.42915 8.75038 9.18766C8.75038 8.94616 8.55437 8.75019 8.31287 8.75019Z" fill="#28B446"/>
<path d="M8.31287 10.5001H3.06296C2.82146 10.5001 2.62545 10.6961 2.62545 10.9376C2.62545 11.1791 2.82146 11.3751 3.06296 11.3751H8.31287C8.55437 11.3751 8.75038 11.1791 8.75038 10.9376C8.75034 10.6961 8.55437 10.5001 8.31287 10.5001Z" fill="#28B446"/>
<path d="M17.0625 7.87512H16.1875C15.4639 7.87512 14.8751 8.46397 14.8751 9.1876V10.0626C14.8751 10.7862 15.4639 11.375 16.1875 11.375H17.0625C17.7861 11.375 18.375 10.7862 18.375 10.0626V9.1876C18.375 8.46401 17.7861 7.87512 17.0625 7.87512ZM17.5 10.0626C17.5 10.3041 17.304 10.5001 17.0625 10.5001H16.1875C15.946 10.5001 15.75 10.3041 15.75 10.0626V9.18764C15.75 8.94614 15.946 8.75013 16.1875 8.75013H17.0625C17.304 8.75013 17.5 8.94614 17.5 9.18764V10.0626Z" fill="#28B446"/>
</svg>
