<svg width="27" height="19" viewBox="0 0 27 19" fill="none" xmlns="http://www.w3.org/2000/svg">
<path d="M15.3358 12.7986C16.0634 12.7986 16.6533 12.2079 16.6533 11.4792C16.6533 10.7505 16.0634 10.1597 15.3358 10.1597C14.6082 10.1597 14.0183 10.7505 14.0183 11.4792C14.0183 12.2079 14.6082 12.7986 15.3358 12.7986Z" fill="#868889"/>
<path d="M19.0247 12.7986C19.7524 12.7986 20.3422 12.2079 20.3422 11.4792C20.3422 10.7505 19.7524 10.1597 19.0247 10.1597C18.2971 10.1597 17.7072 10.7505 17.7072 11.4792C17.7072 12.2079 18.2971 12.7986 19.0247 12.7986Z" fill="#868889"/>
<path d="M11.6469 12.7986C12.3745 12.7986 12.9644 12.2079 12.9644 11.4792C12.9644 10.7505 12.3745 10.1597 11.6469 10.1597C10.9192 10.1597 10.3294 10.7505 10.3294 11.4792C10.3294 12.2079 10.9192 12.7986 11.6469 12.7986Z" fill="#868889"/>
<path d="M7.95771 12.7986C8.68534 12.7986 9.27521 12.2079 9.27521 11.4792C9.27521 10.7505 8.68534 10.1597 7.95771 10.1597C7.23007 10.1597 6.6402 10.7505 6.6402 11.4792C6.6402 12.2079 7.23007 12.7986 7.95771 12.7986Z" fill="#868889"/>
<path d="M25.9284 0H1.054C0.471877 0 0 0.472572 0 1.05556V17.9444C0 18.5274 0.471877 19 1.054 19H25.9284C26.5106 19 26.9824 18.5274 26.9824 17.9444V1.05556C26.9824 0.472572 26.5106 0 25.9284 0ZM24.8744 16.8889H2.108V2.11111H24.8744V16.8889Z" fill="#868889"/>
<path d="M7.95774 7.25694H19.0248C19.6069 7.25694 20.0788 6.78437 20.0788 6.20139C20.0788 5.6184 19.6069 5.14583 19.0248 5.14583H7.95774C7.37561 5.14583 6.90373 5.6184 6.90373 6.20139C6.90373 6.78437 7.37561 7.25694 7.95774 7.25694Z" fill="#868889"/>
</svg>
