<svg width="19" height="23" viewBox="0 0 19 23" fill="none" xmlns="http://www.w3.org/2000/svg">
<path d="M10.925 4.00555C10.6628 4.00555 10.45 3.7909 10.45 3.52641V1.91653C10.45 1.38853 10.0235 0.958265 9.50001 0.958265C8.97656 0.958265 8.55 1.38853 8.55 1.91653V3.52641C8.55 3.7909 8.3372 4.00555 8.075 4.00555C7.8128 4.00555 7.6 3.79185 7.6 3.52641V1.91653C7.6 0.859563 8.45215 0 9.50001 0C10.5479 0 11.4 0.859563 11.4 1.91653V3.52641C11.4 3.79185 11.1872 4.00555 10.925 4.00555Z" fill="#28B446"/>
<path d="M9.49998 22.9983C7.66648 22.9983 6.17497 21.4939 6.17497 19.6444C6.17497 19.3799 6.38777 19.1653 6.64997 19.1653C6.91217 19.1653 7.12497 19.3799 7.12497 19.6444C7.12497 20.9649 8.19088 22.0401 9.49998 22.0401C10.8091 22.0401 11.875 20.9649 11.875 19.6444C11.875 19.3799 12.0878 19.1653 12.35 19.1653C12.6122 19.1653 12.825 19.3799 12.825 19.6444C12.825 21.4939 11.3335 22.9983 9.49998 22.9983Z" fill="#28B446"/>
<path d="M17.5751 20.1236H1.42501C0.639353 20.1236 0 19.4787 0 18.6862C0 18.2655 0.181451 17.8679 0.498752 17.5938C1.99596 16.3174 2.85001 14.4603 2.85001 12.4939V9.58271C2.85001 5.88381 5.83302 2.87486 9.50004 2.87486C13.1671 2.87486 16.1501 5.88381 16.1501 9.58271V12.4939C16.1501 14.4612 17.0041 16.3174 18.4937 17.5871C18.8186 17.8679 19.0001 18.2655 19.0001 18.6862C19.0001 19.4787 18.3617 20.1236 17.5751 20.1236ZM9.50004 3.83312C6.35648 3.83312 3.80002 6.41181 3.80002 9.58271V12.4939C3.80002 14.7439 2.82341 16.8665 1.12005 18.3192C1.0108 18.4131 0.950004 18.5463 0.950004 18.6862C0.950004 18.9507 1.1628 19.1654 1.42501 19.1654H17.5751C17.8373 19.1654 18.0501 18.9507 18.0501 18.6862C18.0501 18.5463 17.9893 18.4131 17.8838 18.3221C16.1776 16.8665 15.2001 14.743 15.2001 12.4939V9.58271C15.2001 6.41181 12.6436 3.83312 9.50004 3.83312Z" fill="#28B446"/>
</svg>
