<svg width="23" height="23" viewBox="0 0 23 23" fill="none" xmlns="http://www.w3.org/2000/svg">
<g clip-path="url(#clip0_1103_5452)">
<path d="M4.6867 15.2889C6.95525 18.0006 9.68609 20.1357 12.803 21.6465C13.9897 22.2089 15.5767 22.8761 17.3448 22.9905C17.4544 22.9952 17.5593 23 17.6689 23C18.8556 23 19.8088 22.5901 20.5856 21.7466C20.5904 21.7418 20.5999 21.7323 20.6047 21.7227C20.8811 21.3891 21.1956 21.0889 21.5245 20.7696C21.7485 20.5551 21.9772 20.3311 22.1965 20.1024C23.2116 19.0443 23.2116 17.7004 22.1869 16.6757L19.3226 13.8114C18.8365 13.3063 18.2551 13.0394 17.6451 13.0394C17.035 13.0394 16.4488 13.3063 15.9484 13.8067L14.2422 15.5128C14.085 15.4223 13.9229 15.3413 13.7704 15.265C13.5798 15.1697 13.4035 15.0792 13.2462 14.9791C11.6925 13.9925 10.2818 12.7058 8.93308 11.052C8.25156 10.1894 7.79404 9.46498 7.47473 8.72627C7.92272 8.32118 8.34212 7.89702 8.74721 7.48239C8.89019 7.33465 9.03793 7.1869 9.18567 7.03916C9.70038 6.52445 9.9768 5.92872 9.9768 5.32346C9.9768 4.71819 9.70515 4.12246 9.18567 3.60775L7.76545 2.18753C7.59864 2.02072 7.44137 1.85868 7.27933 1.69188C6.96478 1.3678 6.63594 1.03419 6.31186 0.733941C5.82098 0.25259 5.24431 0 4.63428 0C4.02902 0 3.44758 0.25259 2.93764 0.738707L1.15521 2.52114C0.50705 3.16929 0.14008 3.95566 0.0638259 4.86593C-0.0267254 6.00497 0.182972 7.2155 0.72628 8.67862C1.5603 10.9424 2.81849 13.0441 4.6867 15.2889ZM1.22669 4.96602C1.28388 4.33216 1.52694 3.80315 1.98447 3.34563L3.75736 1.57273C4.03378 1.30584 4.3388 1.16763 4.63428 1.16763C4.925 1.16763 5.22048 1.30584 5.49213 1.58226C5.81145 1.87775 6.1117 2.18753 6.43577 2.51637C6.59781 2.68317 6.76462 2.84998 6.93142 3.02155L8.35165 4.44177C8.64713 4.73726 8.79964 5.03751 8.79964 5.33299C8.79964 5.62847 8.64713 5.92872 8.35165 6.2242C8.20391 6.37194 8.05616 6.52445 7.90842 6.67219C7.4652 7.12018 7.05057 7.54434 6.59305 7.94944C6.58352 7.95897 6.57875 7.96374 6.56922 7.97327C6.17365 8.36884 6.23561 8.74534 6.33092 9.03129C6.33569 9.04559 6.34046 9.05512 6.34522 9.06942C6.71219 9.9511 7.22214 10.7899 8.01804 11.7907C9.44779 13.5541 10.9538 14.9219 12.6123 15.9751C12.8173 16.1086 13.0365 16.2134 13.2414 16.3183C13.432 16.4136 13.6084 16.5041 13.7657 16.6042C13.7847 16.6138 13.799 16.6233 13.8181 16.6328C13.9754 16.7138 14.1279 16.752 14.2804 16.752C14.6616 16.752 14.9095 16.5089 14.9905 16.4279L16.7729 14.6455C17.0493 14.369 17.3496 14.2213 17.6451 14.2213C18.0073 14.2213 18.3027 14.4453 18.4886 14.6455L21.3624 17.5145C21.9343 18.0864 21.9296 18.706 21.3481 19.3112C21.148 19.5257 20.9383 19.7306 20.7143 19.9451C20.3807 20.2692 20.0328 20.6028 19.7182 20.9793C19.1701 21.5702 18.5172 21.8467 17.6737 21.8467C17.5926 21.8467 17.5069 21.8419 17.4258 21.8371C15.8626 21.737 14.409 21.127 13.3177 20.6075C10.3533 19.173 7.75115 17.138 5.59222 14.5549C3.81455 12.415 2.61832 10.4229 1.82719 8.28782C1.33631 6.97721 1.15044 5.92395 1.22669 4.96602Z" fill="#868889"/>
</g>
<defs>
<clipPath id="clip0_1103_5452">
<rect width="23" height="23" fill="white"/>
</clipPath>
</defs>
</svg>
