<svg width="30" height="27" viewBox="0 0 30 27" fill="none" xmlns="http://www.w3.org/2000/svg">
<path d="M15 19.125C15.3542 19.125 15.6513 19.017 15.8913 18.801C16.1304 18.5858 16.25 18.3188 16.25 18V13.5C16.25 13.1813 16.1304 12.9139 15.8913 12.6979C15.6513 12.4826 15.3542 12.375 15 12.375C14.6458 12.375 14.3492 12.4826 14.11 12.6979C13.87 12.9139 13.75 13.1813 13.75 13.5V18C13.75 18.3188 13.87 18.5858 14.11 18.801C14.3492 19.017 14.6458 19.125 15 19.125ZM15 10.125C15.3542 10.125 15.6513 10.017 15.8913 9.80101C16.1304 9.58576 16.25 9.31876 16.25 9.00001C16.25 8.68126 16.1304 8.41389 15.8913 8.19789C15.6513 7.98264 15.3542 7.87501 15 7.87501C14.6458 7.87501 14.3492 7.98264 14.11 8.19789C13.87 8.41389 13.75 8.68126 13.75 9.00001C13.75 9.31876 13.87 9.58576 14.11 9.80101C14.3492 10.017 14.6458 10.125 15 10.125ZM15 24.6656H14.6875C14.5833 24.6656 14.4896 24.6469 14.4062 24.6094C11.6771 23.8406 9.42708 22.317 7.65625 20.0385C5.88542 17.7608 5 15.2438 5 12.4875V7.17189C5 6.70314 5.15125 6.28126 5.45375 5.90626C5.75542 5.53126 6.14583 5.25939 6.625 5.09064L14.125 2.55939C14.4167 2.46564 14.7083 2.41876 15 2.41876C15.2917 2.41876 15.5833 2.46564 15.875 2.55939L23.375 5.09064C23.8542 5.25939 24.245 5.53126 24.5475 5.90626C24.8492 6.28126 25 6.70314 25 7.17189V12.4875C25 15.2438 24.1146 17.7608 22.3438 20.0385C20.5729 22.317 18.3229 23.8406 15.5938 24.6094C15.4896 24.6469 15.2917 24.6656 15 24.6656ZM15 22.3875C17.1667 21.7688 18.9583 20.5313 20.375 18.675C21.7917 16.8188 22.5 14.7563 22.5 12.4875V7.17189L15 4.64064L7.5 7.17189V12.4875C7.5 14.7563 8.20833 16.8188 9.625 18.675C11.0417 20.5313 12.8333 21.7688 15 22.3875Z" fill="#28B446"/>
</svg>
