<svg width="22" height="28" viewBox="0 0 22 28" fill="none" xmlns="http://www.w3.org/2000/svg">
<path d="M10.7758 0C4.83398 0 0 4.84111 0 10.7917C0 14.1384 1.72913 18.0255 5.1394 22.3448C7.63478 25.5054 10.0942 27.6897 10.1977 27.7811C10.528 28.0729 11.0235 28.073 11.3538 27.7811C11.4573 27.6897 13.9168 25.5054 16.4122 22.3448C19.8224 18.0255 21.5516 14.1384 21.5516 10.7917C21.5516 4.84111 16.7176 0 10.7758 0V0ZM10.7758 25.9313C8.69934 23.9495 1.74743 16.86 1.74743 10.7917C1.74743 5.80607 5.79752 1.75 10.7758 1.75C15.754 1.75 19.8041 5.80607 19.8041 10.7917C19.8041 16.86 12.8521 23.9496 10.7758 25.9313Z" fill="#868889"/>
<path d="M17.4605 10.2733L11.3445 5.02326C11.0173 4.74239 10.5346 4.74239 10.2073 5.02326L4.09136 10.2733C3.725 10.5877 3.68257 11.1402 3.99661 11.5071C4.31066 11.874 4.86224 11.9165 5.2286 11.602L5.97049 10.9651V15.3126C5.97049 15.7958 6.3617 16.1876 6.84421 16.1876H14.7076C15.1901 16.1876 15.5813 15.7958 15.5813 15.3126V10.9651L16.3233 11.602C16.6913 11.9179 17.2426 11.8723 17.5553 11.5071C17.8693 11.1402 17.8269 10.5878 17.4605 10.2733ZM13.8339 14.4376H7.71792V9.46504L10.7759 6.84004L13.8339 9.46504V14.4376Z" fill="#868889"/>
</svg>
